<?xml version="1.0" encoding="UTF-8" standalone="no"?><!DOCTYPE svg PUBLIC "-//W3C//DTD SVG 1.1//EN" "http://www.w3.org/Graphics/SVG/1.1/DTD/svg11.dtd"><svg width="100%" height="100%" viewBox="0 0 1024 643" version="1.1" xmlns="http://www.w3.org/2000/svg" xmlns:xlink="http://www.w3.org/1999/xlink" xml:space="preserve" style="fill-rule:evenodd;clip-rule:evenodd;stroke-linejoin:round;stroke-miterlimit:1.41421;"><rect id="Artboard1" x="0" y="0" width="1024" height="643" style="fill:none;"/><g><path d="M359.635,369.671l-4.627,0l-27.537,-77.681l9.33,0l20.255,58.868l0.304,4.02l0.303,-4.02l20.179,-58.868l9.33,0l-27.537,77.681Z" style="fill:#1563ff;fill-rule:nonzero;"/><path d="M449.909,348.354c0,3.136 -0.595,6.094 -1.783,8.876c-1.189,2.782 -2.82,5.209 -4.893,7.283c-2.074,2.073 -4.501,3.704 -7.283,4.893c-2.781,1.188 -5.74,1.782 -8.875,1.782l-6.221,0c-3.135,0 -6.094,-0.594 -8.875,-1.782c-2.782,-1.189 -5.209,-2.82 -7.283,-4.893c-2.073,-2.074 -3.704,-4.501 -4.893,-7.283c-1.188,-2.782 -1.783,-5.74 -1.783,-8.876l0,-35.047c0,-3.135 0.595,-6.094 1.783,-8.875c1.189,-2.782 2.82,-5.21 4.893,-7.283c2.074,-2.074 4.501,-3.705 7.283,-4.893c2.781,-1.188 5.74,-1.783 8.875,-1.783l6.221,0c3.135,0 6.094,0.595 8.875,1.783c2.782,1.188 5.209,2.819 7.283,4.893c2.073,2.073 3.704,4.501 4.893,7.283c1.188,2.781 1.783,5.74 1.783,8.875l0,18.282l-42.558,0l0,17.296c0,1.872 0.354,3.629 1.062,5.273c0.708,1.643 1.669,3.072 2.883,4.286c1.214,1.214 2.642,2.174 4.286,2.882c1.644,0.708 3.401,1.063 5.272,1.063l6.221,0c1.871,0 3.628,-0.355 5.272,-1.063c1.644,-0.708 3.072,-1.668 4.286,-2.882c1.214,-1.214 2.175,-2.643 2.883,-4.286c0.708,-1.644 1.062,-3.401 1.062,-5.273l0,-5.158l9.331,1.517l0,3.11Zm-9.331,-35.578c0,-1.871 -0.354,-3.629 -1.062,-5.272c-0.708,-1.644 -1.669,-3.072 -2.883,-4.286c-1.214,-1.214 -2.642,-2.175 -4.286,-2.883c-1.644,-0.708 -3.401,-1.062 -5.272,-1.062l-6.221,0c-1.871,0 -3.628,0.354 -5.272,1.062c-1.644,0.708 -3.072,1.669 -4.286,2.883c-1.214,1.214 -2.175,2.642 -2.883,4.286c-0.708,1.643 -1.062,3.401 -1.062,5.272l0,11.531l33.227,0l0,-11.531Z" style="fill:#1563ff;fill-rule:nonzero;"/><path d="M521.976,349.947c0,3.136 -0.633,6.006 -1.897,8.611c-1.264,2.604 -2.984,4.842 -5.158,6.713c-2.175,1.871 -4.691,3.325 -7.548,4.362c-2.858,1.037 -5.854,1.555 -8.99,1.555l-6.22,0c-3.136,0 -6.132,-0.594 -8.99,-1.782c-2.857,-1.189 -5.361,-2.82 -7.51,-4.893c-2.149,-2.074 -3.869,-4.501 -5.158,-7.283c-1.29,-2.782 -1.935,-5.74 -1.935,-8.876l0,-3.11l9.331,-1.517l0,5.158c0,1.872 0.392,3.629 1.176,5.273c0.784,1.643 1.833,3.072 3.148,4.286c1.315,1.214 2.832,2.174 4.552,2.882c1.719,0.708 3.514,1.063 5.386,1.063l6.22,0c1.871,0 3.667,-0.279 5.386,-0.835c1.72,-0.556 3.25,-1.353 4.59,-2.39c1.34,-1.036 2.402,-2.288 3.186,-3.755c0.784,-1.466 1.176,-3.135 1.176,-5.006c0,-2.782 -0.607,-5.058 -1.821,-6.828c-1.214,-1.77 -2.819,-3.249 -4.817,-4.438c-1.998,-1.188 -4.274,-2.174 -6.827,-2.958c-2.554,-0.784 -5.172,-1.568 -7.852,-2.352c-2.68,-0.784 -5.298,-1.681 -7.851,-2.693c-2.554,-1.011 -4.83,-2.339 -6.828,-3.982c-1.998,-1.644 -3.603,-3.705 -4.817,-6.183c-1.214,-2.478 -1.821,-5.563 -1.821,-9.255c0,-3.135 0.607,-6.006 1.821,-8.61c1.214,-2.605 2.857,-4.842 4.931,-6.714c2.073,-1.871 4.488,-3.325 7.245,-4.362c2.756,-1.036 5.702,-1.555 8.837,-1.555l5.462,0c3.136,0 6.094,0.595 8.876,1.783c2.781,1.188 5.209,2.819 7.282,4.893c2.074,2.073 3.705,4.501 4.893,7.283c1.189,2.781 1.783,5.74 1.783,8.875l0,0.304l-9.331,1.517l0,-2.352c0,-1.871 -0.354,-3.629 -1.062,-5.272c-0.708,-1.644 -1.669,-3.072 -2.883,-4.286c-1.213,-1.214 -2.642,-2.175 -4.286,-2.883c-1.643,-0.708 -3.401,-1.062 -5.272,-1.062l-5.462,0c-1.871,0 -3.628,0.278 -5.272,0.834c-1.644,0.557 -3.072,1.353 -4.286,2.39c-1.214,1.037 -2.175,2.289 -2.883,3.755c-0.708,1.467 -1.062,3.136 -1.062,5.007c0,2.68 0.607,4.868 1.821,6.562c1.214,1.694 2.819,3.123 4.817,4.286c1.998,1.163 4.273,2.137 6.827,2.92c2.554,0.784 5.159,1.594 7.814,2.428c2.655,0.834 5.259,1.783 7.813,2.845c2.554,1.062 4.83,2.427 6.828,4.096c1.997,1.669 3.603,3.755 4.817,6.259c1.214,2.503 1.821,5.601 1.821,9.292Z" style="fill:#1563ff;fill-rule:nonzero;"/><path d="M568.174,369.671c-2.832,0 -5.5,-0.531 -8.003,-1.593c-2.503,-1.062 -4.678,-2.529 -6.524,-4.4c-1.846,-1.871 -3.312,-4.046 -4.4,-6.524c-1.087,-2.478 -1.631,-5.133 -1.631,-7.965l0,-48.323l-13.958,0l0,-8.876l13.958,0l0,-18.661l9.331,-1.517l0,20.178l19.724,0l0,8.876l-19.724,0l0,48.778c0,1.568 0.291,3.022 0.872,4.362c0.582,1.34 1.379,2.516 2.39,3.527c1.011,1.012 2.2,1.808 3.565,2.39c1.366,0.582 2.833,0.872 4.4,0.872l8.497,0l0,8.876l-8.497,0Z" style="fill:#1563ff;fill-rule:nonzero;"/><path d="M645.703,348.354c0,3.136 -0.594,6.094 -1.783,8.876c-1.188,2.782 -2.819,5.209 -4.893,7.283c-2.073,2.073 -4.501,3.704 -7.282,4.893c-2.782,1.188 -5.74,1.782 -8.876,1.782l-6.22,0c-3.136,0 -6.094,-0.594 -8.876,-1.782c-2.781,-1.189 -5.209,-2.82 -7.282,-4.893c-2.074,-2.074 -3.705,-4.501 -4.893,-7.283c-1.189,-2.782 -1.783,-5.74 -1.783,-8.876l0,-35.047c0,-3.135 0.594,-6.094 1.783,-8.875c1.188,-2.782 2.819,-5.21 4.893,-7.283c2.073,-2.074 4.501,-3.705 7.282,-4.893c2.782,-1.188 5.74,-1.783 8.876,-1.783l6.22,0c3.136,0 6.094,0.595 8.876,1.783c2.781,1.188 5.209,2.819 7.282,4.893c2.074,2.073 3.705,4.501 4.893,7.283c1.189,2.781 1.783,5.74 1.783,8.875l0,18.282l-42.557,0l0,17.296c0,1.872 0.354,3.629 1.062,5.273c0.708,1.643 1.669,3.072 2.882,4.286c1.214,1.214 2.643,2.174 4.287,2.882c1.643,0.708 3.401,1.063 5.272,1.063l6.22,0c1.872,0 3.629,-0.355 5.273,-1.063c1.643,-0.708 3.072,-1.668 4.286,-2.882c1.213,-1.214 2.174,-2.643 2.882,-4.286c0.708,-1.644 1.062,-3.401 1.062,-5.273l0,-5.158l9.331,1.517l0,3.11Zm-9.331,-35.578c0,-1.871 -0.354,-3.629 -1.062,-5.272c-0.708,-1.644 -1.669,-3.072 -2.882,-4.286c-1.214,-1.214 -2.643,-2.175 -4.286,-2.883c-1.644,-0.708 -3.401,-1.062 -5.273,-1.062l-6.22,0c-1.871,0 -3.629,0.354 -5.272,1.062c-1.644,0.708 -3.073,1.669 -4.287,2.883c-1.213,1.214 -2.174,2.642 -2.882,4.286c-0.708,1.643 -1.062,3.401 -1.062,5.272l0,11.531l33.226,0l0,-11.531Z" style="fill:#1563ff;fill-rule:nonzero;"/><path d="M687.199,300.866c-1.872,0 -3.629,0.354 -5.273,1.062c-1.643,0.708 -3.072,1.669 -4.286,2.883c-1.214,1.214 -2.174,2.642 -2.883,4.286c-0.708,1.644 -1.062,3.401 -1.062,5.272l0,55.302l-9.33,0l0,-77.681l3.11,0l5.083,7.89c2.124,-2.883 4.791,-5.171 8.003,-6.865c3.211,-1.695 6.713,-2.542 10.506,-2.542l5.462,0l0,10.393l-9.33,0Z" style="fill:#1563ff;fill-rule:nonzero;"/></g></svg>