<?xml version="1.0" encoding="UTF-8" standalone="no"?><!DOCTYPE svg PUBLIC "-//W3C//DTD SVG 1.1//EN" "http://www.w3.org/Graphics/SVG/1.1/DTD/svg11.dtd"><svg width="100%" height="100%" viewBox="0 0 147 411" version="1.1" xmlns="http://www.w3.org/2000/svg" xmlns:xlink="http://www.w3.org/1999/xlink" xml:space="preserve" style="fill-rule:evenodd;clip-rule:evenodd;stroke-miterlimit:10;"><g><path d="M26.5,395.5l-19,0l0,-330l10.88,0" style="fill:none;stroke:#000;stroke-width:1px;"/><path d="M25.38,65.5l-7,2.33l0,-4.66l7,2.33Z" style="fill-rule:nonzero;stroke:#000;stroke-width:1px;"/><path d="M146.5,382.5c0,-1.104 -0.896,-2 -2,-2l-116,0c-1.104,0 -2,0.896 -2,2l0,26c0,1.104 0.896,2 2,2l116,0c1.104,0 2,-0.896 2,-2l0,-26Z" style="fill:#fff;stroke:#000;stroke-width:1px;stroke-miterlimit:4;"/><path d="M74.354,398.379c0,0.238 -0.048,0.461 -0.144,0.669c-0.096,0.208 -0.224,0.39 -0.385,0.547c-0.161,0.156 -0.349,0.279 -0.562,0.368c-0.213,0.09 -0.438,0.135 -0.676,0.135l-0.503,0c-0.238,0 -0.463,-0.045 -0.676,-0.135c-0.214,-0.089 -0.401,-0.212 -0.562,-0.368c-0.161,-0.157 -0.29,-0.339 -0.386,-0.547c-0.096,-0.208 -0.144,-0.431 -0.144,-0.669l0,-0.278l0.63,-0.103l0,0.381c0,0.156 0.032,0.302 0.096,0.437c0.063,0.135 0.148,0.254 0.256,0.356c0.107,0.103 0.232,0.183 0.373,0.242c0.142,0.059 0.291,0.088 0.447,0.088l0.44,0c0.156,0 0.304,-0.029 0.444,-0.088c0.14,-0.059 0.264,-0.139 0.371,-0.242c0.107,-0.102 0.193,-0.221 0.256,-0.356c0.064,-0.135 0.096,-0.281 0.096,-0.437l0,-0.21c0,-0.241 -0.048,-0.441 -0.142,-0.601c-0.094,-0.159 -0.22,-0.295 -0.376,-0.407c-0.156,-0.113 -0.333,-0.208 -0.53,-0.286c-0.197,-0.078 -0.399,-0.156 -0.608,-0.234c-0.208,-0.079 -0.411,-0.165 -0.608,-0.259c-0.197,-0.095 -0.373,-0.213 -0.529,-0.354c-0.157,-0.142 -0.282,-0.315 -0.376,-0.52c-0.095,-0.205 -0.142,-0.458 -0.142,-0.757l0,-0.132c0,-0.237 0.045,-0.46 0.134,-0.669c0.09,-0.208 0.213,-0.39 0.369,-0.547c0.156,-0.156 0.339,-0.279 0.549,-0.368c0.21,-0.09 0.434,-0.135 0.672,-0.135l0.449,0c0.238,0 0.461,0.045 0.669,0.135c0.208,0.089 0.39,0.212 0.547,0.368c0.156,0.157 0.279,0.339 0.368,0.547c0.09,0.209 0.135,0.432 0.135,0.669l0,0.181l-0.63,0.102l0,-0.283c0,-0.156 -0.03,-0.302 -0.088,-0.437c-0.059,-0.135 -0.138,-0.253 -0.239,-0.354c-0.101,-0.101 -0.219,-0.181 -0.354,-0.239c-0.135,-0.059 -0.281,-0.088 -0.437,-0.088l-0.391,0c-0.156,0 -0.302,0.029 -0.437,0.088c-0.135,0.058 -0.254,0.138 -0.356,0.239c-0.103,0.101 -0.184,0.219 -0.242,0.354c-0.059,0.135 -0.088,0.281 -0.088,0.437l0,0.132c0,0.225 0.047,0.413 0.142,0.566c0.094,0.153 0.219,0.284 0.376,0.393c0.156,0.109 0.332,0.204 0.529,0.284c0.197,0.079 0.4,0.161 0.608,0.244c0.209,0.083 0.411,0.174 0.608,0.273c0.197,0.1 0.374,0.222 0.53,0.366c0.156,0.145 0.281,0.322 0.376,0.53c0.094,0.209 0.141,0.462 0.141,0.762l0,0.21Z" style="fill-rule:nonzero;"/><path d="M77.328,400c-0.182,0 -0.354,-0.034 -0.515,-0.103c-0.161,-0.068 -0.301,-0.162 -0.42,-0.283c-0.119,-0.12 -0.213,-0.26 -0.283,-0.42c-0.07,-0.159 -0.105,-0.33 -0.105,-0.512l0,-3.111l-0.899,0l0,-0.571l0.899,0l0,-1.201l0.6,-0.098l0,1.299l1.27,0l0,0.571l-1.27,0l0,3.14c0,0.101 0.019,0.194 0.057,0.281c0.037,0.086 0.088,0.162 0.153,0.227c0.066,0.065 0.142,0.116 0.23,0.154c0.088,0.037 0.182,0.056 0.283,0.056l0.547,0l0,0.571l-0.547,0Z" style="fill-rule:nonzero;"/><path d="M80.448,395.571c-0.12,0 -0.233,0.023 -0.339,0.069c-0.106,0.045 -0.198,0.107 -0.276,0.185c-0.078,0.078 -0.14,0.17 -0.186,0.276c-0.045,0.106 -0.068,0.219 -0.068,0.339l0,3.56l-0.6,0l0,-5l0.2,0l0.327,0.508c0.137,-0.186 0.308,-0.333 0.515,-0.442c0.207,-0.109 0.432,-0.164 0.676,-0.164l0.352,0l0,0.669l-0.601,0Z" style="fill-rule:nonzero;"/><path d="M84.989,400l-0.332,-0.498c-0.136,0.179 -0.307,0.323 -0.512,0.432c-0.206,0.109 -0.43,0.164 -0.674,0.164l-0.152,0c-0.201,0 -0.392,-0.039 -0.571,-0.115c-0.179,-0.077 -0.335,-0.182 -0.469,-0.315c-0.133,-0.133 -0.238,-0.29 -0.315,-0.469c-0.076,-0.179 -0.114,-0.369 -0.114,-0.571l0,-0.049c0,-0.202 0.038,-0.392 0.114,-0.571c0.077,-0.179 0.182,-0.335 0.315,-0.469c0.134,-0.133 0.29,-0.238 0.469,-0.315c0.179,-0.076 0.37,-0.115 0.571,-0.115l1.27,0l0,-0.771c0,-0.121 -0.023,-0.234 -0.068,-0.339c-0.046,-0.106 -0.108,-0.198 -0.186,-0.276c-0.078,-0.078 -0.17,-0.14 -0.276,-0.186c-0.106,-0.045 -0.219,-0.068 -0.339,-0.068l-0.352,0c-0.12,0 -0.233,0.023 -0.339,0.068c-0.106,0.046 -0.198,0.108 -0.276,0.186c-0.078,0.078 -0.14,0.17 -0.186,0.276c-0.045,0.105 -0.068,0.218 -0.068,0.339l0,0.181l-0.601,-0.098l0,-0.049c0,-0.202 0.039,-0.392 0.115,-0.571c0.077,-0.179 0.182,-0.336 0.315,-0.469c0.134,-0.133 0.29,-0.238 0.469,-0.315c0.179,-0.076 0.369,-0.115 0.571,-0.115l0.352,0c0.202,0 0.392,0.039 0.571,0.115c0.179,0.077 0.335,0.182 0.469,0.315c0.133,0.133 0.238,0.29 0.315,0.469c0.076,0.179 0.114,0.369 0.114,0.571l0,3.628l-0.2,0Zm-0.4,-2.422l-1.27,0c-0.12,0 -0.233,0.023 -0.339,0.068c-0.106,0.046 -0.198,0.109 -0.276,0.188c-0.078,0.08 -0.14,0.173 -0.185,0.279c-0.046,0.106 -0.069,0.219 -0.069,0.339l0,0.21c0,0.121 0.023,0.234 0.069,0.339c0.045,0.106 0.107,0.198 0.185,0.276c0.078,0.078 0.17,0.14 0.276,0.186c0.106,0.045 0.219,0.068 0.339,0.068l0.401,0c0.12,0 0.233,-0.023 0.339,-0.068c0.106,-0.046 0.198,-0.108 0.276,-0.186c0.078,-0.078 0.14,-0.17 0.186,-0.276c0.045,-0.105 0.068,-0.218 0.068,-0.339l0,-1.084Z" style="fill-rule:nonzero;"/><path d="M88.212,400c-0.182,0 -0.354,-0.034 -0.515,-0.103c-0.161,-0.068 -0.301,-0.162 -0.42,-0.283c-0.119,-0.12 -0.213,-0.26 -0.283,-0.42c-0.07,-0.159 -0.105,-0.33 -0.105,-0.512l0,-3.111l-0.899,0l0,-0.571l0.899,0l0,-1.201l0.6,-0.098l0,1.299l1.27,0l0,0.571l-1.27,0l0,3.14c0,0.101 0.019,0.194 0.056,0.281c0.038,0.086 0.089,0.162 0.154,0.227c0.065,0.065 0.142,0.116 0.23,0.154c0.088,0.037 0.182,0.056 0.283,0.056l0.547,0l0,0.571l-0.547,0Z" style="fill-rule:nonzero;"/><path d="M93.202,398.628c0,0.202 -0.038,0.392 -0.115,0.571c-0.076,0.179 -0.181,0.336 -0.315,0.469c-0.133,0.133 -0.289,0.238 -0.468,0.315c-0.179,0.076 -0.37,0.115 -0.572,0.115l-0.4,0c-0.202,0 -0.392,-0.039 -0.571,-0.115c-0.179,-0.077 -0.336,-0.182 -0.469,-0.315c-0.133,-0.133 -0.238,-0.29 -0.315,-0.469c-0.076,-0.179 -0.115,-0.369 -0.115,-0.571l0,-2.256c0,-0.202 0.039,-0.392 0.115,-0.571c0.077,-0.179 0.182,-0.336 0.315,-0.469c0.133,-0.133 0.29,-0.238 0.469,-0.315c0.179,-0.076 0.369,-0.115 0.571,-0.115l0.4,0c0.202,0 0.393,0.039 0.572,0.115c0.179,0.077 0.335,0.182 0.468,0.315c0.134,0.133 0.239,0.29 0.315,0.469c0.077,0.179 0.115,0.369 0.115,0.571l0,1.177l-2.739,0l0,1.113c0,0.121 0.023,0.234 0.068,0.339c0.046,0.106 0.108,0.198 0.186,0.276c0.078,0.078 0.17,0.14 0.276,0.186c0.105,0.045 0.219,0.068 0.339,0.068l0.4,0c0.121,0 0.234,-0.023 0.34,-0.068c0.106,-0.046 0.198,-0.108 0.276,-0.186c0.078,-0.078 0.14,-0.17 0.185,-0.276c0.046,-0.105 0.069,-0.218 0.069,-0.339l0,-0.332l0.6,0.098l0,0.2Zm-0.6,-2.29c0,-0.121 -0.023,-0.234 -0.069,-0.339c-0.045,-0.106 -0.107,-0.198 -0.185,-0.276c-0.078,-0.078 -0.17,-0.14 -0.276,-0.186c-0.106,-0.045 -0.219,-0.068 -0.34,-0.068l-0.4,0c-0.12,0 -0.234,0.023 -0.339,0.068c-0.106,0.046 -0.198,0.108 -0.276,0.186c-0.078,0.078 -0.14,0.17 -0.186,0.276c-0.045,0.105 -0.068,0.218 -0.068,0.339l0,0.742l2.139,0l0,-0.742Z" style="fill-rule:nonzero;"/><path d="M97.792,400.63c0,0.202 -0.038,0.387 -0.115,0.557c-0.076,0.169 -0.181,0.314 -0.315,0.434c-0.133,0.121 -0.289,0.214 -0.468,0.281c-0.179,0.067 -0.37,0.1 -0.572,0.1l-0.249,0c-0.202,0 -0.392,-0.033 -0.571,-0.1c-0.179,-0.067 -0.335,-0.16 -0.469,-0.281c-0.133,-0.12 -0.238,-0.265 -0.315,-0.434c-0.076,-0.17 -0.114,-0.355 -0.114,-0.557l0,-0.02c0,-0.195 0.035,-0.374 0.107,-0.537c0.072,-0.163 0.169,-0.304 0.293,-0.425c-0.156,-0.094 -0.281,-0.222 -0.374,-0.383c-0.092,-0.161 -0.139,-0.339 -0.139,-0.535c0,-0.175 0.038,-0.339 0.113,-0.49c0.074,-0.152 0.177,-0.275 0.307,-0.369c-0.156,-0.137 -0.28,-0.301 -0.371,-0.493c-0.091,-0.192 -0.137,-0.402 -0.137,-0.63l0,-0.376c0,-0.202 0.039,-0.392 0.115,-0.571c0.077,-0.179 0.182,-0.336 0.315,-0.469c0.133,-0.133 0.29,-0.238 0.469,-0.315c0.179,-0.076 0.369,-0.115 0.571,-0.115l0.249,0c0.244,0 0.47,0.055 0.676,0.164c0.207,0.109 0.379,0.256 0.515,0.442l0.328,-0.508l0.2,0l0,1.748c0,0.202 -0.038,0.392 -0.115,0.571c-0.076,0.179 -0.181,0.336 -0.315,0.469c-0.133,0.134 -0.29,0.239 -0.469,0.315c-0.179,0.077 -0.369,0.115 -0.571,0.115l-0.869,0c-0.068,0 -0.134,0.014 -0.195,0.041c-0.062,0.028 -0.117,0.065 -0.164,0.11c-0.047,0.046 -0.084,0.1 -0.11,0.164c-0.026,0.063 -0.039,0.129 -0.039,0.197c0,0.069 0.013,0.134 0.039,0.196c0.026,0.062 0.063,0.116 0.11,0.163c0.047,0.048 0.102,0.084 0.164,0.11c0.061,0.026 0.127,0.039 0.195,0.039l0.82,0c0.202,0 0.393,0.034 0.572,0.1c0.179,0.067 0.335,0.161 0.468,0.281c0.134,0.121 0.239,0.265 0.315,0.435c0.077,0.169 0.115,0.355 0.115,0.556l0,0.02Zm-0.547,-4.292c0,-0.121 -0.023,-0.234 -0.068,-0.339c-0.046,-0.106 -0.108,-0.198 -0.188,-0.276c-0.08,-0.078 -0.173,-0.14 -0.279,-0.186c-0.105,-0.045 -0.218,-0.068 -0.339,-0.068l-0.498,0c-0.12,0 -0.234,0.023 -0.339,0.068c-0.106,0.046 -0.198,0.108 -0.276,0.186c-0.078,0.078 -0.14,0.17 -0.186,0.276c-0.045,0.105 -0.068,0.218 -0.068,0.339l0,0.444c0,0.121 0.023,0.234 0.068,0.34c0.046,0.105 0.108,0.197 0.186,0.275c0.078,0.079 0.17,0.14 0.276,0.186c0.105,0.046 0.219,0.068 0.339,0.068l0.498,0c0.121,0 0.234,-0.022 0.339,-0.068c0.106,-0.046 0.199,-0.107 0.279,-0.186c0.08,-0.078 0.142,-0.17 0.188,-0.275c0.045,-0.106 0.068,-0.219 0.068,-0.34l0,-0.444Zm-0.024,4.243c0,-0.12 -0.023,-0.229 -0.069,-0.325c-0.045,-0.096 -0.107,-0.176 -0.185,-0.241c-0.078,-0.065 -0.17,-0.116 -0.276,-0.152c-0.106,-0.036 -0.219,-0.053 -0.339,-0.053l-0.308,0c-0.12,0 -0.234,0.017 -0.339,0.053c-0.106,0.036 -0.198,0.087 -0.276,0.152c-0.078,0.065 -0.14,0.145 -0.186,0.241c-0.045,0.096 -0.068,0.205 -0.068,0.325l0,0.078c0,0.121 0.023,0.228 0.068,0.322c0.046,0.095 0.108,0.175 0.186,0.242c0.078,0.067 0.17,0.118 0.276,0.154c0.105,0.036 0.219,0.054 0.339,0.054l0.308,0c0.12,0 0.233,-0.018 0.339,-0.054c0.106,-0.036 0.198,-0.087 0.276,-0.154c0.078,-0.067 0.14,-0.147 0.185,-0.242c0.046,-0.094 0.069,-0.201 0.069,-0.322l0,-0.078Z" style="fill-rule:nonzero;"/><path d="M99.755,402.002l-0.581,0l0.889,-2.432l-1.622,-4.57l0.601,0l1.304,3.789l0.019,0.259l0.02,-0.259l1.299,-3.789l0.6,0l-2.529,7.002Z" style="fill-rule:nonzero;"/><path d="M146.5,102.5c0,-1.104 -0.896,-2 -2,-2l-116,0c-1.104,0 -2,0.896 -2,2l0,206c0,1.104 0.896,2 2,2l116,0c1.104,0 2,-0.896 2,-2l0,-206Z" style="fill:#fff;stroke:#000;stroke-width:1px;stroke-miterlimit:4;stroke-dasharray:3,3;"/><path d="M137.93,152.5c0,-1.104 -0.896,-2 -2,-2l-98.86,0c-1.104,0 -2,0.896 -2,2l0,26c0,1.104 0.896,2 2,2l98.86,0c1.104,0 2,-0.896 2,-2l0,-26Z" style="fill:#fff;stroke:#000;stroke-width:1px;stroke-miterlimit:4;"/><path d="M75.076,170l0,-7.002l0.63,0l0,6.401l2.681,0l0,0.601l-3.311,0Z" style="fill-rule:nonzero;"/><path d="M82.527,168.628c0,0.202 -0.038,0.392 -0.114,0.571c-0.077,0.179 -0.182,0.336 -0.315,0.469c-0.134,0.133 -0.29,0.238 -0.469,0.315c-0.179,0.076 -0.37,0.115 -0.571,0.115l-0.401,0c-0.202,0 -0.392,-0.039 -0.571,-0.115c-0.179,-0.077 -0.335,-0.182 -0.469,-0.315c-0.133,-0.133 -0.238,-0.29 -0.315,-0.469c-0.076,-0.179 -0.115,-0.369 -0.115,-0.571l0,-2.256c0,-0.202 0.039,-0.392 0.115,-0.571c0.077,-0.179 0.182,-0.336 0.315,-0.469c0.134,-0.133 0.29,-0.238 0.469,-0.315c0.179,-0.076 0.369,-0.115 0.571,-0.115l0.401,0c0.201,0 0.392,0.039 0.571,0.115c0.179,0.077 0.335,0.182 0.469,0.315c0.133,0.133 0.238,0.29 0.315,0.469c0.076,0.179 0.114,0.369 0.114,0.571l0,2.256Zm-0.6,-2.29c0,-0.121 -0.023,-0.234 -0.069,-0.339c-0.045,-0.106 -0.107,-0.198 -0.185,-0.276c-0.078,-0.078 -0.17,-0.14 -0.276,-0.186c-0.106,-0.045 -0.219,-0.068 -0.339,-0.068l-0.401,0c-0.12,0 -0.233,0.023 -0.339,0.068c-0.106,0.046 -0.198,0.108 -0.276,0.186c-0.078,0.078 -0.14,0.17 -0.186,0.276c-0.045,0.105 -0.068,0.218 -0.068,0.339l0,2.324c0,0.121 0.023,0.234 0.068,0.339c0.046,0.106 0.108,0.198 0.186,0.276c0.078,0.078 0.17,0.14 0.276,0.186c0.106,0.045 0.219,0.068 0.339,0.068l0.401,0c0.12,0 0.233,-0.023 0.339,-0.068c0.106,-0.046 0.198,-0.108 0.276,-0.186c0.078,-0.078 0.14,-0.17 0.185,-0.276c0.046,-0.105 0.069,-0.218 0.069,-0.339l0,-2.324Z" style="fill-rule:nonzero;"/><path d="M87.117,170.63c0,0.202 -0.038,0.387 -0.115,0.557c-0.076,0.169 -0.181,0.314 -0.315,0.434c-0.133,0.121 -0.289,0.214 -0.468,0.281c-0.179,0.067 -0.37,0.1 -0.572,0.1l-0.249,0c-0.201,0 -0.392,-0.033 -0.571,-0.1c-0.179,-0.067 -0.335,-0.16 -0.469,-0.281c-0.133,-0.12 -0.238,-0.265 -0.315,-0.434c-0.076,-0.17 -0.114,-0.355 -0.114,-0.557l0,-0.02c0,-0.195 0.036,-0.374 0.107,-0.537c0.072,-0.163 0.169,-0.304 0.293,-0.425c-0.156,-0.094 -0.281,-0.222 -0.373,-0.383c-0.093,-0.161 -0.14,-0.339 -0.14,-0.535c0,-0.175 0.038,-0.339 0.113,-0.49c0.075,-0.152 0.177,-0.275 0.307,-0.369c-0.156,-0.137 -0.28,-0.301 -0.371,-0.493c-0.091,-0.192 -0.136,-0.402 -0.136,-0.63l0,-0.376c0,-0.202 0.038,-0.392 0.114,-0.571c0.077,-0.179 0.182,-0.336 0.315,-0.469c0.134,-0.133 0.29,-0.238 0.469,-0.315c0.179,-0.076 0.369,-0.115 0.571,-0.115l0.249,0c0.244,0 0.47,0.055 0.677,0.164c0.206,0.109 0.378,0.256 0.515,0.442l0.327,-0.508l0.2,0l0,1.748c0,0.202 -0.038,0.392 -0.115,0.571c-0.076,0.179 -0.181,0.336 -0.315,0.469c-0.133,0.134 -0.289,0.239 -0.468,0.315c-0.179,0.077 -0.37,0.115 -0.572,0.115l-0.869,0c-0.068,0 -0.133,0.014 -0.195,0.041c-0.062,0.028 -0.117,0.065 -0.164,0.11c-0.047,0.046 -0.084,0.1 -0.11,0.164c-0.026,0.063 -0.039,0.129 -0.039,0.197c0,0.069 0.013,0.134 0.039,0.196c0.026,0.062 0.063,0.116 0.11,0.163c0.047,0.048 0.102,0.084 0.164,0.11c0.062,0.026 0.127,0.039 0.195,0.039l0.82,0c0.202,0 0.393,0.034 0.572,0.1c0.179,0.067 0.335,0.161 0.468,0.281c0.134,0.121 0.239,0.265 0.315,0.435c0.077,0.169 0.115,0.355 0.115,0.556l0,0.02Zm-0.547,-4.292c0,-0.121 -0.022,-0.234 -0.068,-0.339c-0.046,-0.106 -0.108,-0.198 -0.188,-0.276c-0.08,-0.078 -0.173,-0.14 -0.278,-0.186c-0.106,-0.045 -0.219,-0.068 -0.34,-0.068l-0.498,0c-0.12,0 -0.233,0.023 -0.339,0.068c-0.106,0.046 -0.198,0.108 -0.276,0.186c-0.078,0.078 -0.14,0.17 -0.186,0.276c-0.045,0.105 -0.068,0.218 -0.068,0.339l0,0.444c0,0.121 0.023,0.234 0.068,0.34c0.046,0.105 0.108,0.197 0.186,0.275c0.078,0.079 0.17,0.14 0.276,0.186c0.106,0.046 0.219,0.068 0.339,0.068l0.498,0c0.121,0 0.234,-0.022 0.34,-0.068c0.105,-0.046 0.198,-0.107 0.278,-0.186c0.08,-0.078 0.142,-0.17 0.188,-0.275c0.046,-0.106 0.068,-0.219 0.068,-0.34l0,-0.444Zm-0.024,4.243c0,-0.12 -0.023,-0.229 -0.068,-0.325c-0.046,-0.096 -0.108,-0.176 -0.186,-0.241c-0.078,-0.065 -0.17,-0.116 -0.276,-0.152c-0.106,-0.036 -0.219,-0.053 -0.339,-0.053l-0.308,0c-0.12,0 -0.233,0.017 -0.339,0.053c-0.106,0.036 -0.198,0.087 -0.276,0.152c-0.078,0.065 -0.14,0.145 -0.186,0.241c-0.045,0.096 -0.068,0.205 -0.068,0.325l0,0.078c0,0.121 0.023,0.228 0.068,0.322c0.046,0.095 0.108,0.175 0.186,0.242c0.078,0.067 0.17,0.118 0.276,0.154c0.106,0.036 0.219,0.054 0.339,0.054l0.308,0c0.12,0 0.233,-0.018 0.339,-0.054c0.106,-0.036 0.198,-0.087 0.276,-0.154c0.078,-0.067 0.14,-0.147 0.186,-0.242c0.045,-0.094 0.068,-0.201 0.068,-0.322l0,-0.078Z" style="fill-rule:nonzero;"/><path d="M91.658,170.63c0,0.202 -0.038,0.387 -0.115,0.557c-0.076,0.169 -0.181,0.314 -0.314,0.434c-0.134,0.121 -0.29,0.214 -0.469,0.281c-0.179,0.067 -0.37,0.1 -0.572,0.1l-0.249,0c-0.201,0 -0.392,-0.033 -0.571,-0.1c-0.179,-0.067 -0.335,-0.16 -0.469,-0.281c-0.133,-0.12 -0.238,-0.265 -0.315,-0.434c-0.076,-0.17 -0.114,-0.355 -0.114,-0.557l0,-0.02c0,-0.195 0.036,-0.374 0.107,-0.537c0.072,-0.163 0.169,-0.304 0.293,-0.425c-0.156,-0.094 -0.281,-0.222 -0.373,-0.383c-0.093,-0.161 -0.14,-0.339 -0.14,-0.535c0,-0.175 0.038,-0.339 0.113,-0.49c0.075,-0.152 0.177,-0.275 0.307,-0.369c-0.156,-0.137 -0.28,-0.301 -0.371,-0.493c-0.091,-0.192 -0.136,-0.402 -0.136,-0.63l0,-0.376c0,-0.202 0.038,-0.392 0.114,-0.571c0.077,-0.179 0.182,-0.336 0.315,-0.469c0.134,-0.133 0.29,-0.238 0.469,-0.315c0.179,-0.076 0.369,-0.115 0.571,-0.115l0.249,0c0.244,0 0.47,0.055 0.677,0.164c0.206,0.109 0.378,0.256 0.515,0.442l0.327,-0.508l0.2,0l0,1.748c0,0.202 -0.038,0.392 -0.115,0.571c-0.076,0.179 -0.181,0.336 -0.315,0.469c-0.133,0.134 -0.289,0.239 -0.468,0.315c-0.179,0.077 -0.37,0.115 -0.572,0.115l-0.869,0c-0.068,0 -0.133,0.014 -0.195,0.041c-0.062,0.028 -0.117,0.065 -0.164,0.11c-0.047,0.046 -0.084,0.1 -0.11,0.164c-0.026,0.063 -0.039,0.129 -0.039,0.197c0,0.069 0.013,0.134 0.039,0.196c0.026,0.062 0.063,0.116 0.11,0.163c0.047,0.048 0.102,0.084 0.164,0.11c0.062,0.026 0.127,0.039 0.195,0.039l0.82,0c0.202,0 0.393,0.034 0.572,0.1c0.179,0.067 0.335,0.161 0.469,0.281c0.133,0.121 0.238,0.265 0.314,0.435c0.077,0.169 0.115,0.355 0.115,0.556l0,0.02Zm-0.547,-4.292c0,-0.121 -0.022,-0.234 -0.068,-0.339c-0.046,-0.106 -0.108,-0.198 -0.188,-0.276c-0.08,-0.078 -0.173,-0.14 -0.278,-0.186c-0.106,-0.045 -0.219,-0.068 -0.34,-0.068l-0.498,0c-0.12,0 -0.233,0.023 -0.339,0.068c-0.106,0.046 -0.198,0.108 -0.276,0.186c-0.078,0.078 -0.14,0.17 -0.186,0.276c-0.045,0.105 -0.068,0.218 -0.068,0.339l0,0.444c0,0.121 0.023,0.234 0.068,0.34c0.046,0.105 0.108,0.197 0.186,0.275c0.078,0.079 0.17,0.14 0.276,0.186c0.106,0.046 0.219,0.068 0.339,0.068l0.498,0c0.121,0 0.234,-0.022 0.34,-0.068c0.105,-0.046 0.198,-0.107 0.278,-0.186c0.08,-0.078 0.142,-0.17 0.188,-0.275c0.046,-0.106 0.068,-0.219 0.068,-0.34l0,-0.444Zm-0.024,4.243c0,-0.12 -0.023,-0.229 -0.068,-0.325c-0.046,-0.096 -0.108,-0.176 -0.186,-0.241c-0.078,-0.065 -0.17,-0.116 -0.276,-0.152c-0.106,-0.036 -0.219,-0.053 -0.339,-0.053l-0.308,0c-0.12,0 -0.233,0.017 -0.339,0.053c-0.106,0.036 -0.198,0.087 -0.276,0.152c-0.078,0.065 -0.14,0.145 -0.186,0.241c-0.045,0.096 -0.068,0.205 -0.068,0.325l0,0.078c0,0.121 0.023,0.228 0.068,0.322c0.046,0.095 0.108,0.175 0.186,0.242c0.078,0.067 0.17,0.118 0.276,0.154c0.106,0.036 0.219,0.054 0.339,0.054l0.308,0c0.12,0 0.233,-0.018 0.339,-0.054c0.106,-0.036 0.198,-0.087 0.276,-0.154c0.078,-0.067 0.14,-0.147 0.186,-0.242c0.045,-0.094 0.068,-0.201 0.068,-0.322l0,-0.078Z" style="fill-rule:nonzero;"/><path d="M96.15,168.628c0,0.202 -0.038,0.392 -0.114,0.571c-0.077,0.179 -0.182,0.336 -0.315,0.469c-0.134,0.133 -0.29,0.238 -0.469,0.315c-0.179,0.076 -0.37,0.115 -0.571,0.115l-0.401,0c-0.202,0 -0.392,-0.039 -0.571,-0.115c-0.179,-0.077 -0.335,-0.182 -0.469,-0.315c-0.133,-0.133 -0.238,-0.29 -0.315,-0.469c-0.076,-0.179 -0.114,-0.369 -0.114,-0.571l0,-2.256c0,-0.202 0.038,-0.392 0.114,-0.571c0.077,-0.179 0.182,-0.336 0.315,-0.469c0.134,-0.133 0.29,-0.238 0.469,-0.315c0.179,-0.076 0.369,-0.115 0.571,-0.115l0.401,0c0.201,0 0.392,0.039 0.571,0.115c0.179,0.077 0.335,0.182 0.469,0.315c0.133,0.133 0.238,0.29 0.315,0.469c0.076,0.179 0.114,0.369 0.114,0.571l0,1.177l-2.739,0l0,1.113c0,0.121 0.023,0.234 0.068,0.339c0.046,0.106 0.108,0.198 0.186,0.276c0.078,0.078 0.17,0.14 0.276,0.186c0.106,0.045 0.219,0.068 0.339,0.068l0.401,0c0.12,0 0.233,-0.023 0.339,-0.068c0.106,-0.046 0.198,-0.108 0.276,-0.186c0.078,-0.078 0.14,-0.17 0.185,-0.276c0.046,-0.105 0.069,-0.218 0.069,-0.339l0,-0.332l0.6,0.098l0,0.2Zm-0.6,-2.29c0,-0.121 -0.023,-0.234 -0.069,-0.339c-0.045,-0.106 -0.107,-0.198 -0.185,-0.276c-0.078,-0.078 -0.17,-0.14 -0.276,-0.186c-0.106,-0.045 -0.219,-0.068 -0.339,-0.068l-0.401,0c-0.12,0 -0.233,0.023 -0.339,0.068c-0.106,0.046 -0.198,0.108 -0.276,0.186c-0.078,0.078 -0.14,0.17 -0.186,0.276c-0.045,0.105 -0.068,0.218 -0.068,0.339l0,0.742l2.139,0l0,-0.742Z" style="fill-rule:nonzero;"/><path d="M98.821,165.571c-0.12,0 -0.233,0.023 -0.339,0.069c-0.106,0.045 -0.198,0.107 -0.276,0.185c-0.078,0.078 -0.14,0.17 -0.185,0.276c-0.046,0.106 -0.069,0.219 -0.069,0.339l0,3.56l-0.6,0l0,-5l0.2,0l0.327,0.508c0.137,-0.186 0.308,-0.333 0.515,-0.442c0.207,-0.109 0.432,-0.164 0.676,-0.164l0.352,0l0,0.669l-0.601,0Z" style="fill-rule:nonzero;"/><path d="M137.93,192.5c0,-1.104 -0.896,-2 -2,-2l-98.86,0c-1.104,0 -2,0.896 -2,2l0,26c0,1.104 0.896,2 2,2l98.86,0c1.104,0 2,-0.896 2,-2l0,-26Z" style="fill:#fff;stroke:#000;stroke-width:1px;stroke-miterlimit:4;"/><path d="M73.345,208.379c0,0.238 -0.045,0.461 -0.134,0.669c-0.09,0.208 -0.212,0.39 -0.369,0.547c-0.156,0.156 -0.338,0.279 -0.547,0.368c-0.208,0.09 -0.431,0.135 -0.669,0.135l-0.2,0c-0.237,0 -0.461,-0.045 -0.671,-0.135c-0.21,-0.089 -0.393,-0.212 -0.549,-0.368c-0.157,-0.157 -0.28,-0.339 -0.369,-0.547c-0.09,-0.208 -0.134,-0.431 -0.134,-0.669l0,-0.278l0.63,-0.103l0,0.381c0,0.156 0.029,0.302 0.087,0.437c0.059,0.135 0.14,0.254 0.242,0.356c0.103,0.103 0.221,0.183 0.357,0.242c0.135,0.059 0.28,0.088 0.437,0.088l0.141,0c0.153,0 0.298,-0.029 0.435,-0.088c0.136,-0.059 0.255,-0.139 0.356,-0.242c0.101,-0.102 0.181,-0.221 0.239,-0.356c0.059,-0.135 0.088,-0.281 0.088,-0.437l0,-5.381l0.63,0l0,5.381Z" style="fill-rule:nonzero;"/><path d="M77.886,208.628c0,0.202 -0.038,0.392 -0.115,0.571c-0.076,0.179 -0.181,0.336 -0.314,0.469c-0.134,0.133 -0.29,0.238 -0.469,0.315c-0.179,0.076 -0.37,0.115 -0.571,0.115l-0.401,0c-0.202,0 -0.392,-0.039 -0.571,-0.115c-0.179,-0.077 -0.335,-0.182 -0.469,-0.315c-0.133,-0.133 -0.238,-0.29 -0.315,-0.469c-0.076,-0.179 -0.115,-0.369 -0.115,-0.571l0,-2.256c0,-0.202 0.039,-0.392 0.115,-0.571c0.077,-0.179 0.182,-0.336 0.315,-0.469c0.134,-0.133 0.29,-0.238 0.469,-0.315c0.179,-0.076 0.369,-0.115 0.571,-0.115l0.401,0c0.201,0 0.392,0.039 0.571,0.115c0.179,0.077 0.335,0.182 0.469,0.315c0.133,0.133 0.238,0.29 0.314,0.469c0.077,0.179 0.115,0.369 0.115,0.571l0,2.256Zm-0.6,-2.29c0,-0.121 -0.023,-0.234 -0.069,-0.339c-0.045,-0.106 -0.107,-0.198 -0.185,-0.276c-0.078,-0.078 -0.17,-0.14 -0.276,-0.186c-0.106,-0.045 -0.219,-0.068 -0.339,-0.068l-0.401,0c-0.12,0 -0.233,0.023 -0.339,0.068c-0.106,0.046 -0.198,0.108 -0.276,0.186c-0.078,0.078 -0.14,0.17 -0.186,0.276c-0.045,0.105 -0.068,0.218 -0.068,0.339l0,2.324c0,0.121 0.023,0.234 0.068,0.339c0.046,0.106 0.108,0.198 0.186,0.276c0.078,0.078 0.17,0.14 0.276,0.186c0.106,0.045 0.219,0.068 0.339,0.068l0.401,0c0.12,0 0.233,-0.023 0.339,-0.068c0.106,-0.046 0.198,-0.108 0.276,-0.186c0.078,-0.078 0.14,-0.17 0.185,-0.276c0.046,-0.105 0.069,-0.218 0.069,-0.339l0,-2.324Z" style="fill-rule:nonzero;"/><path d="M82.227,210l-0.332,-0.508c-0.137,0.186 -0.308,0.333 -0.513,0.442c-0.205,0.109 -0.429,0.164 -0.674,0.164l-0.151,0c-0.202,0 -0.392,-0.039 -0.571,-0.115c-0.179,-0.077 -0.335,-0.182 -0.469,-0.315c-0.133,-0.133 -0.238,-0.29 -0.315,-0.469c-0.076,-0.179 -0.115,-0.369 -0.115,-0.571l0,-3.628l0.601,0l0,3.662c0,0.121 0.023,0.234 0.068,0.339c0.046,0.106 0.108,0.198 0.186,0.276c0.078,0.078 0.17,0.14 0.276,0.186c0.106,0.045 0.219,0.068 0.339,0.068l0.401,0c0.12,0 0.233,-0.023 0.339,-0.068c0.106,-0.046 0.198,-0.108 0.276,-0.186c0.078,-0.078 0.14,-0.17 0.185,-0.276c0.046,-0.105 0.069,-0.218 0.069,-0.339l0,-3.662l0.6,0l0,5l-0.2,0Z" style="fill-rule:nonzero;"/><path d="M85.098,205.571c-0.12,0 -0.233,0.023 -0.339,0.069c-0.106,0.045 -0.198,0.107 -0.276,0.185c-0.078,0.078 -0.14,0.17 -0.186,0.276c-0.045,0.106 -0.068,0.219 -0.068,0.339l0,3.56l-0.601,0l0,-5l0.201,0l0.327,0.508c0.136,-0.186 0.308,-0.333 0.515,-0.442c0.207,-0.109 0.432,-0.164 0.676,-0.164l0.352,0l0,0.669l-0.601,0Z" style="fill-rule:nonzero;"/><path d="M89.239,210l0,-3.662c0,-0.121 -0.023,-0.234 -0.069,-0.339c-0.045,-0.106 -0.107,-0.198 -0.185,-0.276c-0.078,-0.078 -0.17,-0.14 -0.276,-0.186c-0.106,-0.045 -0.219,-0.068 -0.339,-0.068l-0.401,0c-0.12,0 -0.233,0.023 -0.339,0.068c-0.106,0.046 -0.198,0.108 -0.276,0.186c-0.078,0.078 -0.14,0.17 -0.186,0.276c-0.045,0.105 -0.068,0.218 -0.068,0.339l0,3.662l-0.6,0l0,-5l0.2,0l0.327,0.508c0.137,-0.186 0.308,-0.333 0.515,-0.442c0.207,-0.109 0.432,-0.164 0.676,-0.164l0.152,0c0.201,0 0.392,0.039 0.571,0.115c0.179,0.077 0.335,0.182 0.469,0.315c0.133,0.133 0.238,0.29 0.315,0.469c0.076,0.179 0.114,0.369 0.114,0.571l0,3.628l-0.6,0Z" style="fill-rule:nonzero;"/><path d="M94.18,210l-0.332,-0.498c-0.137,0.179 -0.307,0.323 -0.513,0.432c-0.205,0.109 -0.429,0.164 -0.673,0.164l-0.152,0c-0.202,0 -0.392,-0.039 -0.571,-0.115c-0.179,-0.077 -0.335,-0.182 -0.469,-0.315c-0.133,-0.133 -0.238,-0.29 -0.315,-0.469c-0.076,-0.179 -0.114,-0.369 -0.114,-0.571l0,-0.049c0,-0.202 0.038,-0.392 0.114,-0.571c0.077,-0.179 0.182,-0.335 0.315,-0.469c0.134,-0.133 0.29,-0.238 0.469,-0.315c0.179,-0.076 0.369,-0.115 0.571,-0.115l1.27,0l0,-0.771c0,-0.121 -0.023,-0.234 -0.069,-0.339c-0.045,-0.106 -0.107,-0.198 -0.185,-0.276c-0.078,-0.078 -0.17,-0.14 -0.276,-0.186c-0.106,-0.045 -0.219,-0.068 -0.339,-0.068l-0.352,0c-0.12,0 -0.233,0.023 -0.339,0.068c-0.106,0.046 -0.198,0.108 -0.276,0.186c-0.078,0.078 -0.14,0.17 -0.186,0.276c-0.045,0.105 -0.068,0.218 -0.068,0.339l0,0.181l-0.601,-0.098l0,-0.049c0,-0.202 0.039,-0.392 0.115,-0.571c0.077,-0.179 0.182,-0.336 0.315,-0.469c0.134,-0.133 0.29,-0.238 0.469,-0.315c0.179,-0.076 0.369,-0.115 0.571,-0.115l0.352,0c0.201,0 0.392,0.039 0.571,0.115c0.179,0.077 0.335,0.182 0.469,0.315c0.133,0.133 0.238,0.29 0.315,0.469c0.076,0.179 0.114,0.369 0.114,0.571l0,3.628l-0.2,0Zm-0.4,-2.422l-1.27,0c-0.12,0 -0.233,0.023 -0.339,0.068c-0.106,0.046 -0.198,0.109 -0.276,0.188c-0.078,0.08 -0.14,0.173 -0.186,0.279c-0.045,0.106 -0.068,0.219 -0.068,0.339l0,0.21c0,0.121 0.023,0.234 0.068,0.339c0.046,0.106 0.108,0.198 0.186,0.276c0.078,0.078 0.17,0.14 0.276,0.186c0.106,0.045 0.219,0.068 0.339,0.068l0.401,0c0.12,0 0.233,-0.023 0.339,-0.068c0.106,-0.046 0.198,-0.108 0.276,-0.186c0.078,-0.078 0.14,-0.17 0.185,-0.276c0.046,-0.105 0.069,-0.218 0.069,-0.339l0,-1.084Z" style="fill-rule:nonzero;"/><rect x="95.782" y="202.998" width="0.601" height="7.002" style="fill-rule:nonzero;"/><path d="M101.124,208.628c0,0.202 -0.039,0.392 -0.115,0.571c-0.077,0.179 -0.182,0.336 -0.315,0.469c-0.134,0.133 -0.29,0.238 -0.469,0.315c-0.179,0.076 -0.369,0.115 -0.571,0.115l-0.401,0c-0.201,0 -0.392,-0.039 -0.571,-0.115c-0.179,-0.077 -0.335,-0.182 -0.469,-0.315c-0.133,-0.133 -0.238,-0.29 -0.315,-0.469c-0.076,-0.179 -0.114,-0.369 -0.114,-0.571l0,-2.256c0,-0.202 0.038,-0.392 0.114,-0.571c0.077,-0.179 0.182,-0.336 0.315,-0.469c0.134,-0.133 0.29,-0.238 0.469,-0.315c0.179,-0.076 0.37,-0.115 0.571,-0.115l0.401,0c0.202,0 0.392,0.039 0.571,0.115c0.179,0.077 0.335,0.182 0.469,0.315c0.133,0.133 0.238,0.29 0.315,0.469c0.076,0.179 0.115,0.369 0.115,0.571l0,1.177l-2.74,0l0,1.113c0,0.121 0.023,0.234 0.069,0.339c0.045,0.106 0.107,0.198 0.185,0.276c0.078,0.078 0.17,0.14 0.276,0.186c0.106,0.045 0.219,0.068 0.339,0.068l0.401,0c0.12,0 0.233,-0.023 0.339,-0.068c0.106,-0.046 0.198,-0.108 0.276,-0.186c0.078,-0.078 0.14,-0.17 0.186,-0.276c0.045,-0.105 0.068,-0.218 0.068,-0.339l0,-0.332l0.601,0.098l0,0.2Zm-0.601,-2.29c0,-0.121 -0.023,-0.234 -0.068,-0.339c-0.046,-0.106 -0.108,-0.198 -0.186,-0.276c-0.078,-0.078 -0.17,-0.14 -0.276,-0.186c-0.106,-0.045 -0.219,-0.068 -0.339,-0.068l-0.401,0c-0.12,0 -0.233,0.023 -0.339,0.068c-0.106,0.046 -0.198,0.108 -0.276,0.186c-0.078,0.078 -0.14,0.17 -0.185,0.276c-0.046,0.105 -0.069,0.218 -0.069,0.339l0,0.742l2.139,0l0,-0.742Z" style="fill-rule:nonzero;"/><path d="M103.794,205.571c-0.12,0 -0.233,0.023 -0.339,0.069c-0.106,0.045 -0.198,0.107 -0.276,0.185c-0.078,0.078 -0.14,0.17 -0.185,0.276c-0.046,0.106 -0.069,0.219 -0.069,0.339l0,3.56l-0.6,0l0,-5l0.2,0l0.327,0.508c0.137,-0.186 0.308,-0.333 0.515,-0.442c0.207,-0.109 0.432,-0.164 0.676,-0.164l0.352,0l0,0.669l-0.601,0Z" style="fill-rule:nonzero;"/><path d="M137.93,232.5c0,-1.104 -0.896,-2 -2,-2l-98.86,0c-1.104,0 -2,0.896 -2,2l0,26c0,1.104 0.896,2 2,2l98.86,0c1.104,0 2,-0.896 2,-2l0,-26Z" style="fill:#fff;stroke:#000;stroke-width:1px;stroke-miterlimit:4;"/><path d="M65.657,250l-1.899,-2.988l-0.864,0l0,2.988l-0.63,0l0,-7.002l2.221,0c0.238,0 0.461,0.045 0.669,0.134c0.209,0.09 0.391,0.213 0.547,0.369c0.156,0.156 0.279,0.339 0.369,0.549c0.089,0.21 0.134,0.434 0.134,0.672l0,0.566c0,0.238 -0.045,0.462 -0.134,0.671c-0.09,0.21 -0.213,0.394 -0.369,0.55c-0.156,0.156 -0.338,0.279 -0.547,0.368c-0.208,0.09 -0.431,0.135 -0.669,0.135l1.9,2.988l-0.728,0Zm-0.083,-5.278c0,-0.157 -0.029,-0.302 -0.088,-0.437c-0.058,-0.135 -0.138,-0.254 -0.239,-0.357c-0.101,-0.102 -0.219,-0.183 -0.354,-0.241c-0.135,-0.059 -0.281,-0.088 -0.437,-0.088l-1.562,0l0,2.812l1.562,0c0.156,0 0.302,-0.029 0.437,-0.088c0.135,-0.058 0.253,-0.139 0.354,-0.241c0.101,-0.103 0.181,-0.222 0.239,-0.357c0.059,-0.135 0.088,-0.281 0.088,-0.437l0,-0.566Z" style="fill-rule:nonzero;"/><path d="M67.537,243.799l0,-0.801l0.698,0l0,0.801l-0.698,0Zm0.049,6.201l0,-5l0.601,0l0,5l-0.601,0Z" style="fill-rule:nonzero;"/><path d="M73.025,248.73c0,0.202 -0.04,0.387 -0.122,0.555c-0.081,0.167 -0.192,0.311 -0.332,0.432c-0.14,0.12 -0.302,0.214 -0.486,0.281c-0.183,0.066 -0.376,0.1 -0.578,0.1l-0.401,0c-0.201,0 -0.394,-0.039 -0.578,-0.115c-0.184,-0.077 -0.345,-0.182 -0.484,-0.315c-0.138,-0.133 -0.249,-0.29 -0.332,-0.469c-0.083,-0.179 -0.124,-0.369 -0.124,-0.571l0,-0.2l0.6,-0.098l0,0.332c0,0.121 0.026,0.234 0.076,0.339c0.051,0.106 0.118,0.198 0.203,0.276c0.084,0.078 0.182,0.14 0.293,0.186c0.11,0.045 0.226,0.068 0.346,0.068l0.401,0c0.12,0 0.236,-0.018 0.347,-0.053c0.11,-0.036 0.209,-0.088 0.295,-0.154c0.086,-0.067 0.155,-0.148 0.205,-0.242c0.05,-0.094 0.076,-0.202 0.076,-0.322c0,-0.179 -0.039,-0.326 -0.118,-0.44c-0.078,-0.114 -0.181,-0.209 -0.31,-0.285c-0.128,-0.077 -0.275,-0.14 -0.439,-0.191c-0.164,-0.05 -0.333,-0.101 -0.505,-0.151c-0.173,-0.051 -0.341,-0.108 -0.506,-0.173c-0.164,-0.066 -0.311,-0.151 -0.439,-0.257c-0.129,-0.106 -0.232,-0.238 -0.31,-0.398c-0.078,-0.159 -0.117,-0.358 -0.117,-0.595c0,-0.202 0.039,-0.387 0.117,-0.555c0.078,-0.167 0.184,-0.311 0.317,-0.432c0.134,-0.12 0.289,-0.214 0.466,-0.281c0.178,-0.066 0.367,-0.1 0.569,-0.1l0.352,0c0.202,0 0.392,0.039 0.571,0.115c0.179,0.077 0.335,0.182 0.469,0.315c0.133,0.133 0.238,0.29 0.315,0.469c0.076,0.179 0.115,0.369 0.115,0.571l0,0.02l-0.601,0.097l0,-0.151c0,-0.121 -0.023,-0.234 -0.068,-0.339c-0.046,-0.106 -0.108,-0.198 -0.186,-0.276c-0.078,-0.078 -0.17,-0.14 -0.276,-0.186c-0.106,-0.045 -0.219,-0.068 -0.339,-0.068l-0.352,0c-0.12,0 -0.233,0.018 -0.339,0.053c-0.106,0.036 -0.198,0.088 -0.276,0.154c-0.078,0.067 -0.14,0.148 -0.186,0.242c-0.045,0.094 -0.068,0.202 -0.068,0.322c0,0.173 0.039,0.314 0.117,0.423c0.078,0.109 0.182,0.201 0.31,0.275c0.129,0.075 0.275,0.138 0.44,0.188c0.164,0.051 0.332,0.103 0.503,0.157c0.171,0.053 0.338,0.114 0.503,0.183c0.164,0.068 0.311,0.156 0.439,0.263c0.129,0.108 0.232,0.242 0.31,0.403c0.078,0.161 0.117,0.361 0.117,0.598Z" style="fill-rule:nonzero;"/><path d="M77.137,250l-2.041,-2.5l2.041,-2.5l0.781,0l-2.09,2.5l2.09,2.5l-0.781,0Zm-2.759,0l0,-7.002l0.601,0l0,7.002l-0.601,0Z" style="fill-rule:nonzero;"/><path d="M85.53,250l0,-4.8l-0.044,0.298l-1.626,4.502l-0.332,0l-1.64,-4.502l-0.039,-0.298l0,4.8l-0.63,0l0,-7.002l0.327,0l2.124,5.742l0.019,0.259l0.02,-0.259l2.119,-5.742l0.332,0l0,7.002l-0.63,0Z" style="fill-rule:nonzero;"/><path d="M90.599,250l-0.332,-0.498c-0.137,0.179 -0.308,0.323 -0.513,0.432c-0.205,0.109 -0.43,0.164 -0.674,0.164l-0.151,0c-0.202,0 -0.393,-0.039 -0.572,-0.115c-0.179,-0.077 -0.335,-0.182 -0.468,-0.315c-0.134,-0.133 -0.239,-0.29 -0.315,-0.469c-0.077,-0.179 -0.115,-0.369 -0.115,-0.571l0,-0.049c0,-0.202 0.038,-0.392 0.115,-0.571c0.076,-0.179 0.181,-0.335 0.315,-0.469c0.133,-0.133 0.289,-0.238 0.468,-0.315c0.179,-0.076 0.37,-0.115 0.572,-0.115l1.269,0l0,-0.771c0,-0.121 -0.023,-0.234 -0.068,-0.339c-0.046,-0.106 -0.108,-0.198 -0.186,-0.276c-0.078,-0.078 -0.17,-0.14 -0.276,-0.186c-0.105,-0.045 -0.218,-0.068 -0.339,-0.068l-0.351,0c-0.121,0 -0.234,0.023 -0.34,0.068c-0.106,0.046 -0.198,0.108 -0.276,0.186c-0.078,0.078 -0.14,0.17 -0.185,0.276c-0.046,0.105 -0.069,0.218 -0.069,0.339l0,0.181l-0.6,-0.098l0,-0.049c0,-0.202 0.038,-0.392 0.115,-0.571c0.076,-0.179 0.181,-0.336 0.314,-0.469c0.134,-0.133 0.29,-0.238 0.469,-0.315c0.179,-0.076 0.37,-0.115 0.572,-0.115l0.351,0c0.202,0 0.392,0.039 0.571,0.115c0.179,0.077 0.336,0.182 0.469,0.315c0.134,0.133 0.239,0.29 0.315,0.469c0.077,0.179 0.115,0.369 0.115,0.571l0,3.628l-0.2,0Zm-0.401,-2.422l-1.269,0c-0.121,0 -0.234,0.023 -0.34,0.068c-0.105,0.046 -0.197,0.109 -0.276,0.188c-0.078,0.08 -0.139,0.173 -0.185,0.279c-0.046,0.106 -0.068,0.219 -0.068,0.339l0,0.21c0,0.121 0.022,0.234 0.068,0.339c0.046,0.106 0.107,0.198 0.185,0.276c0.079,0.078 0.171,0.14 0.276,0.186c0.106,0.045 0.219,0.068 0.34,0.068l0.4,0c0.121,0 0.234,-0.023 0.339,-0.068c0.106,-0.046 0.198,-0.108 0.276,-0.186c0.078,-0.078 0.14,-0.17 0.186,-0.276c0.045,-0.105 0.068,-0.218 0.068,-0.339l0,-1.084Z" style="fill-rule:nonzero;"/><path d="M94.739,250l0,-3.662c0,-0.121 -0.023,-0.234 -0.068,-0.339c-0.046,-0.106 -0.108,-0.198 -0.186,-0.276c-0.078,-0.078 -0.17,-0.14 -0.276,-0.186c-0.105,-0.045 -0.218,-0.068 -0.339,-0.068l-0.4,0c-0.121,0 -0.234,0.023 -0.34,0.068c-0.105,0.046 -0.197,0.108 -0.276,0.186c-0.078,0.078 -0.139,0.17 -0.185,0.276c-0.046,0.105 -0.068,0.218 -0.068,0.339l0,3.662l-0.601,0l0,-5l0.2,0l0.327,0.508c0.137,-0.186 0.309,-0.333 0.515,-0.442c0.207,-0.109 0.433,-0.164 0.677,-0.164l0.151,0c0.202,0 0.392,0.039 0.571,0.115c0.179,0.077 0.336,0.182 0.469,0.315c0.134,0.133 0.239,0.29 0.315,0.469c0.077,0.179 0.115,0.369 0.115,0.571l0,3.628l-0.601,0Z" style="fill-rule:nonzero;"/><path d="M99.681,250l-0.332,-0.498c-0.137,0.179 -0.308,0.323 -0.513,0.432c-0.205,0.109 -0.43,0.164 -0.674,0.164l-0.151,0c-0.202,0 -0.393,-0.039 -0.572,-0.115c-0.179,-0.077 -0.335,-0.182 -0.468,-0.315c-0.134,-0.133 -0.239,-0.29 -0.315,-0.469c-0.077,-0.179 -0.115,-0.369 -0.115,-0.571l0,-0.049c0,-0.202 0.038,-0.392 0.115,-0.571c0.076,-0.179 0.181,-0.335 0.315,-0.469c0.133,-0.133 0.289,-0.238 0.468,-0.315c0.179,-0.076 0.37,-0.115 0.572,-0.115l1.269,0l0,-0.771c0,-0.121 -0.023,-0.234 -0.068,-0.339c-0.046,-0.106 -0.108,-0.198 -0.186,-0.276c-0.078,-0.078 -0.17,-0.14 -0.276,-0.186c-0.105,-0.045 -0.218,-0.068 -0.339,-0.068l-0.351,0c-0.121,0 -0.234,0.023 -0.34,0.068c-0.106,0.046 -0.198,0.108 -0.276,0.186c-0.078,0.078 -0.14,0.17 -0.185,0.276c-0.046,0.105 -0.069,0.218 -0.069,0.339l0,0.181l-0.6,-0.098l0,-0.049c0,-0.202 0.038,-0.392 0.115,-0.571c0.076,-0.179 0.181,-0.336 0.315,-0.469c0.133,-0.133 0.289,-0.238 0.468,-0.315c0.179,-0.076 0.37,-0.115 0.572,-0.115l0.351,0c0.202,0 0.392,0.039 0.571,0.115c0.179,0.077 0.336,0.182 0.469,0.315c0.134,0.133 0.239,0.29 0.315,0.469c0.077,0.179 0.115,0.369 0.115,0.571l0,3.628l-0.2,0Zm-0.401,-2.422l-1.269,0c-0.121,0 -0.234,0.023 -0.34,0.068c-0.105,0.046 -0.197,0.109 -0.275,0.188c-0.079,0.08 -0.14,0.173 -0.186,0.279c-0.046,0.106 -0.068,0.219 -0.068,0.339l0,0.21c0,0.121 0.022,0.234 0.068,0.339c0.046,0.106 0.107,0.198 0.186,0.276c0.078,0.078 0.17,0.14 0.275,0.186c0.106,0.045 0.219,0.068 0.34,0.068l0.4,0c0.121,0 0.234,-0.023 0.339,-0.068c0.106,-0.046 0.198,-0.108 0.276,-0.186c0.078,-0.078 0.14,-0.17 0.186,-0.276c0.045,-0.105 0.068,-0.218 0.068,-0.339l0,-1.084Z" style="fill-rule:nonzero;"/><path d="M104.471,250.63c0,0.202 -0.039,0.387 -0.115,0.557c-0.077,0.169 -0.182,0.314 -0.315,0.434c-0.133,0.121 -0.29,0.214 -0.469,0.281c-0.179,0.067 -0.369,0.1 -0.571,0.1l-0.249,0c-0.202,0 -0.392,-0.033 -0.571,-0.1c-0.179,-0.067 -0.336,-0.16 -0.469,-0.281c-0.134,-0.12 -0.239,-0.265 -0.315,-0.434c-0.077,-0.17 -0.115,-0.355 -0.115,-0.557l0,-0.02c0,-0.195 0.036,-0.374 0.108,-0.537c0.071,-0.163 0.169,-0.304 0.293,-0.425c-0.157,-0.094 -0.281,-0.222 -0.374,-0.383c-0.093,-0.161 -0.139,-0.339 -0.139,-0.535c0,-0.175 0.037,-0.339 0.112,-0.49c0.075,-0.152 0.178,-0.275 0.308,-0.369c-0.156,-0.137 -0.28,-0.301 -0.371,-0.493c-0.091,-0.192 -0.137,-0.402 -0.137,-0.63l0,-0.376c0,-0.202 0.038,-0.392 0.115,-0.571c0.076,-0.179 0.181,-0.336 0.315,-0.469c0.133,-0.133 0.289,-0.238 0.468,-0.315c0.18,-0.076 0.37,-0.115 0.572,-0.115l0.249,0c0.244,0 0.469,0.055 0.676,0.164c0.207,0.109 0.378,0.256 0.515,0.442l0.327,-0.508l0.201,0l0,1.748c0,0.202 -0.039,0.392 -0.115,0.571c-0.077,0.179 -0.182,0.336 -0.315,0.469c-0.134,0.134 -0.29,0.239 -0.469,0.315c-0.179,0.077 -0.369,0.115 -0.571,0.115l-0.869,0c-0.069,0 -0.134,0.014 -0.196,0.041c-0.061,0.028 -0.116,0.065 -0.163,0.11c-0.047,0.046 -0.084,0.1 -0.11,0.164c-0.026,0.063 -0.039,0.129 -0.039,0.197c0,0.069 0.013,0.134 0.039,0.196c0.026,0.062 0.063,0.116 0.11,0.163c0.047,0.048 0.102,0.084 0.163,0.11c0.062,0.026 0.127,0.039 0.196,0.039l0.82,0c0.202,0 0.392,0.034 0.571,0.1c0.179,0.067 0.336,0.161 0.469,0.281c0.133,0.121 0.238,0.265 0.315,0.435c0.076,0.169 0.115,0.355 0.115,0.556l0,0.02Zm-0.547,-4.292c0,-0.121 -0.023,-0.234 -0.069,-0.339c-0.045,-0.106 -0.108,-0.198 -0.188,-0.276c-0.079,-0.078 -0.172,-0.14 -0.278,-0.186c-0.106,-0.045 -0.219,-0.068 -0.339,-0.068l-0.498,0c-0.121,0 -0.234,0.023 -0.34,0.068c-0.105,0.046 -0.197,0.108 -0.275,0.186c-0.079,0.078 -0.14,0.17 -0.186,0.276c-0.046,0.105 -0.068,0.218 -0.068,0.339l0,0.444c0,0.121 0.022,0.234 0.068,0.34c0.046,0.105 0.107,0.197 0.186,0.275c0.078,0.079 0.17,0.14 0.275,0.186c0.106,0.046 0.219,0.068 0.34,0.068l0.498,0c0.12,0 0.233,-0.022 0.339,-0.068c0.106,-0.046 0.199,-0.107 0.278,-0.186c0.08,-0.078 0.143,-0.17 0.188,-0.275c0.046,-0.106 0.069,-0.219 0.069,-0.34l0,-0.444Zm-0.025,4.243c0,-0.12 -0.022,-0.229 -0.068,-0.325c-0.046,-0.096 -0.107,-0.176 -0.185,-0.241c-0.079,-0.065 -0.171,-0.116 -0.276,-0.152c-0.106,-0.036 -0.219,-0.053 -0.34,-0.053l-0.307,0c-0.121,0 -0.234,0.017 -0.34,0.053c-0.105,0.036 -0.197,0.087 -0.276,0.152c-0.078,0.065 -0.14,0.145 -0.185,0.241c-0.046,0.096 -0.068,0.205 -0.068,0.325l0,0.078c0,0.121 0.022,0.228 0.068,0.322c0.045,0.095 0.107,0.175 0.185,0.242c0.079,0.067 0.171,0.118 0.276,0.154c0.106,0.036 0.219,0.054 0.34,0.054l0.307,0c0.121,0 0.234,-0.018 0.34,-0.054c0.105,-0.036 0.197,-0.087 0.276,-0.154c0.078,-0.067 0.139,-0.147 0.185,-0.242c0.046,-0.094 0.068,-0.201 0.068,-0.322l0,-0.078Z" style="fill-rule:nonzero;"/><path d="M108.963,248.628c0,0.202 -0.038,0.392 -0.115,0.571c-0.076,0.179 -0.181,0.336 -0.315,0.469c-0.133,0.133 -0.29,0.238 -0.469,0.315c-0.179,0.076 -0.369,0.115 -0.571,0.115l-0.4,0c-0.202,0 -0.392,-0.039 -0.572,-0.115c-0.179,-0.077 -0.335,-0.182 -0.468,-0.315c-0.134,-0.133 -0.239,-0.29 -0.315,-0.469c-0.077,-0.179 -0.115,-0.369 -0.115,-0.571l0,-2.256c0,-0.202 0.038,-0.392 0.115,-0.571c0.076,-0.179 0.181,-0.336 0.315,-0.469c0.133,-0.133 0.289,-0.238 0.468,-0.315c0.18,-0.076 0.37,-0.115 0.572,-0.115l0.4,0c0.202,0 0.392,0.039 0.571,0.115c0.179,0.077 0.336,0.182 0.469,0.315c0.134,0.133 0.239,0.29 0.315,0.469c0.077,0.179 0.115,0.369 0.115,0.571l0,1.177l-2.739,0l0,1.113c0,0.121 0.022,0.234 0.068,0.339c0.046,0.106 0.107,0.198 0.186,0.276c0.078,0.078 0.17,0.14 0.275,0.186c0.106,0.045 0.219,0.068 0.34,0.068l0.4,0c0.121,0 0.234,-0.023 0.34,-0.068c0.105,-0.046 0.197,-0.108 0.275,-0.186c0.079,-0.078 0.14,-0.17 0.186,-0.276c0.046,-0.105 0.068,-0.218 0.068,-0.339l0,-0.332l0.601,0.098l0,0.2Zm-0.601,-2.29c0,-0.121 -0.022,-0.234 -0.068,-0.339c-0.046,-0.106 -0.107,-0.198 -0.186,-0.276c-0.078,-0.078 -0.17,-0.14 -0.275,-0.186c-0.106,-0.045 -0.219,-0.068 -0.34,-0.068l-0.4,0c-0.121,0 -0.234,0.023 -0.34,0.068c-0.105,0.046 -0.197,0.108 -0.275,0.186c-0.079,0.078 -0.14,0.17 -0.186,0.276c-0.046,0.105 -0.068,0.218 -0.068,0.339l0,0.742l2.138,0l0,-0.742Z" style="fill-rule:nonzero;"/><path d="M111.634,245.571c-0.121,0 -0.234,0.023 -0.34,0.069c-0.105,0.045 -0.197,0.107 -0.275,0.185c-0.079,0.078 -0.14,0.17 -0.186,0.276c-0.046,0.106 -0.068,0.219 -0.068,0.339l0,3.56l-0.601,0l0,-5l0.2,0l0.327,0.508c0.137,-0.186 0.309,-0.333 0.516,-0.442c0.206,-0.109 0.432,-0.164 0.676,-0.164l0.351,0l0,0.669l-0.6,0Z" style="fill-rule:nonzero;"/><path d="M137.93,272.5c0,-1.104 -0.896,-2 -2,-2l-98.86,0c-1.104,0 -2,0.896 -2,2l0,26c0,1.104 0.896,2 2,2l98.86,0c1.104,0 2,-0.896 2,-2l0,-26Z" style="fill:#fff;stroke:#000;stroke-width:1px;stroke-miterlimit:4;"/><path d="M79.488,288.281c0,0.238 -0.045,0.461 -0.134,0.669c-0.09,0.209 -0.213,0.391 -0.369,0.547c-0.156,0.156 -0.339,0.279 -0.549,0.369c-0.21,0.089 -0.434,0.134 -0.672,0.134l-2.217,0l0,-7.002l2.217,0c0.238,0 0.462,0.045 0.672,0.134c0.21,0.09 0.393,0.213 0.549,0.369c0.156,0.156 0.279,0.339 0.369,0.549c0.089,0.21 0.134,0.434 0.134,0.672l0,0.068c0,0.166 -0.022,0.325 -0.066,0.476c-0.044,0.151 -0.107,0.292 -0.188,0.422c-0.081,0.131 -0.178,0.249 -0.288,0.354c-0.111,0.106 -0.235,0.195 -0.371,0.267c0.136,0.071 0.26,0.16 0.371,0.266c0.11,0.106 0.207,0.224 0.288,0.356c0.081,0.132 0.144,0.274 0.188,0.425c0.044,0.151 0.066,0.31 0.066,0.476l0,0.449Zm-0.63,-0.552c0,-0.156 -0.029,-0.301 -0.088,-0.437c-0.059,-0.135 -0.139,-0.253 -0.242,-0.354c-0.102,-0.1 -0.221,-0.18 -0.356,-0.239c-0.135,-0.058 -0.281,-0.088 -0.437,-0.088l-1.558,0l0,2.788l1.558,0c0.156,0 0.302,-0.029 0.437,-0.087c0.135,-0.059 0.254,-0.139 0.356,-0.24c0.103,-0.101 0.183,-0.219 0.242,-0.354c0.059,-0.135 0.088,-0.281 0.088,-0.437l0,-0.552Zm0,-3.007c0,-0.157 -0.029,-0.302 -0.088,-0.437c-0.059,-0.135 -0.139,-0.254 -0.242,-0.357c-0.102,-0.102 -0.221,-0.183 -0.356,-0.241c-0.135,-0.059 -0.281,-0.088 -0.437,-0.088l-1.558,0l0,2.412l1.558,0c0.156,0 0.302,-0.03 0.437,-0.088c0.135,-0.059 0.254,-0.139 0.356,-0.242c0.103,-0.102 0.183,-0.221 0.242,-0.356c0.059,-0.135 0.088,-0.281 0.088,-0.437l0,-0.166Z" style="fill-rule:nonzero;"/><path d="M81.958,285.571c-0.12,0 -0.233,0.023 -0.339,0.069c-0.106,0.045 -0.198,0.107 -0.276,0.185c-0.078,0.078 -0.14,0.17 -0.185,0.276c-0.046,0.106 -0.069,0.219 -0.069,0.339l0,3.56l-0.6,0l0,-5l0.2,0l0.327,0.508c0.137,-0.186 0.309,-0.333 0.515,-0.442c0.207,-0.109 0.432,-0.164 0.677,-0.164l0.351,0l0,0.669l-0.601,0Z" style="fill-rule:nonzero;"/><path d="M86.7,288.628c0,0.202 -0.039,0.392 -0.115,0.571c-0.077,0.179 -0.182,0.336 -0.315,0.469c-0.133,0.133 -0.29,0.238 -0.469,0.315c-0.179,0.076 -0.369,0.115 -0.571,0.115l-0.4,0c-0.202,0 -0.393,-0.039 -0.572,-0.115c-0.179,-0.077 -0.335,-0.182 -0.468,-0.315c-0.134,-0.133 -0.239,-0.29 -0.315,-0.469c-0.077,-0.179 -0.115,-0.369 -0.115,-0.571l0,-2.256c0,-0.202 0.038,-0.392 0.115,-0.571c0.076,-0.179 0.181,-0.336 0.315,-0.469c0.133,-0.133 0.289,-0.238 0.468,-0.315c0.179,-0.076 0.37,-0.115 0.572,-0.115l0.4,0c0.202,0 0.392,0.039 0.571,0.115c0.179,0.077 0.336,0.182 0.469,0.315c0.133,0.133 0.238,0.29 0.315,0.469c0.076,0.179 0.115,0.369 0.115,0.571l0,2.256Zm-0.601,-2.29c0,-0.121 -0.023,-0.234 -0.068,-0.339c-0.046,-0.106 -0.108,-0.198 -0.186,-0.276c-0.078,-0.078 -0.17,-0.14 -0.276,-0.186c-0.105,-0.045 -0.219,-0.068 -0.339,-0.068l-0.4,0c-0.121,0 -0.234,0.023 -0.34,0.068c-0.106,0.046 -0.198,0.108 -0.276,0.186c-0.078,0.078 -0.14,0.17 -0.185,0.276c-0.046,0.105 -0.069,0.218 -0.069,0.339l0,2.324c0,0.121 0.023,0.234 0.069,0.339c0.045,0.106 0.107,0.198 0.185,0.276c0.078,0.078 0.17,0.14 0.276,0.186c0.106,0.045 0.219,0.068 0.34,0.068l0.4,0c0.12,0 0.234,-0.023 0.339,-0.068c0.106,-0.046 0.198,-0.108 0.276,-0.186c0.078,-0.078 0.14,-0.17 0.186,-0.276c0.045,-0.105 0.068,-0.218 0.068,-0.339l0,-2.324Z" style="fill-rule:nonzero;"/><path d="M90.86,290l-2.041,-2.5l2.041,-2.5l0.781,0l-2.09,2.5l2.09,2.5l-0.781,0Zm-2.759,0l0,-7.002l0.601,0l0,7.002l-0.601,0Z" style="fill-rule:nonzero;"/><path d="M95.782,288.628c0,0.202 -0.039,0.392 -0.115,0.571c-0.077,0.179 -0.181,0.336 -0.315,0.469c-0.133,0.133 -0.29,0.238 -0.469,0.315c-0.179,0.076 -0.369,0.115 -0.571,0.115l-0.4,0c-0.202,0 -0.393,-0.039 -0.572,-0.115c-0.179,-0.077 -0.335,-0.182 -0.468,-0.315c-0.134,-0.133 -0.239,-0.29 -0.315,-0.469c-0.077,-0.179 -0.115,-0.369 -0.115,-0.571l0,-2.256c0,-0.202 0.038,-0.392 0.115,-0.571c0.076,-0.179 0.181,-0.336 0.315,-0.469c0.133,-0.133 0.289,-0.238 0.468,-0.315c0.179,-0.076 0.37,-0.115 0.572,-0.115l0.4,0c0.202,0 0.392,0.039 0.571,0.115c0.179,0.077 0.336,0.182 0.469,0.315c0.134,0.133 0.238,0.29 0.315,0.469c0.076,0.179 0.115,0.369 0.115,0.571l0,1.177l-2.74,0l0,1.113c0,0.121 0.023,0.234 0.069,0.339c0.045,0.106 0.107,0.198 0.185,0.276c0.079,0.078 0.17,0.14 0.276,0.186c0.106,0.045 0.219,0.068 0.34,0.068l0.4,0c0.12,0 0.234,-0.023 0.339,-0.068c0.106,-0.046 0.198,-0.108 0.276,-0.186c0.078,-0.078 0.14,-0.17 0.186,-0.276c0.045,-0.105 0.068,-0.218 0.068,-0.339l0,-0.332l0.601,0.098l0,0.2Zm-0.601,-2.29c0,-0.121 -0.023,-0.234 -0.068,-0.339c-0.046,-0.106 -0.108,-0.198 -0.186,-0.276c-0.078,-0.078 -0.17,-0.14 -0.276,-0.186c-0.105,-0.045 -0.219,-0.068 -0.339,-0.068l-0.4,0c-0.121,0 -0.234,0.023 -0.34,0.068c-0.106,0.046 -0.197,0.108 -0.276,0.186c-0.078,0.078 -0.14,0.17 -0.185,0.276c-0.046,0.105 -0.069,0.218 -0.069,0.339l0,0.742l2.139,0l0,-0.742Z" style="fill-rule:nonzero;"/><path d="M98.453,285.571c-0.121,0 -0.234,0.023 -0.34,0.069c-0.106,0.045 -0.197,0.107 -0.276,0.185c-0.078,0.078 -0.14,0.17 -0.185,0.276c-0.046,0.106 -0.069,0.219 -0.069,0.339l0,3.56l-0.6,0l0,-5l0.2,0l0.327,0.508c0.137,-0.186 0.309,-0.333 0.515,-0.442c0.207,-0.109 0.433,-0.164 0.677,-0.164l0.351,0l0,0.669l-0.6,0Z" style="fill-rule:nonzero;"/><path d="M137.93,112.5c0,-1.104 -0.896,-2 -2,-2l-98.86,0c-1.104,0 -2,0.896 -2,2l0,26c0,1.104 0.896,2 2,2l98.86,0c1.104,0 2,-0.896 2,-2l0,-26Z" style="fill:#fff;stroke:#000;stroke-width:1px;stroke-miterlimit:4;"/><path d="M77.337,130l-2.92,-5.098l-0.059,-0.302l0,5.4l-0.629,0l0,-7.002l0.327,0l2.92,5.103l0.063,0.297l0,-5.4l0.63,0l0,7.002l-0.332,0Z" style="fill-rule:nonzero;"/><path d="M82.313,128.628c-0.001,0.202 -0.039,0.392 -0.115,0.571c-0.077,0.179 -0.182,0.336 -0.315,0.469c-0.134,0.133 -0.29,0.238 -0.469,0.315c-0.179,0.076 -0.369,0.115 -0.571,0.115l-0.401,0c-0.201,0 -0.392,-0.039 -0.571,-0.115c-0.179,-0.077 -0.335,-0.182 -0.469,-0.315c-0.133,-0.133 -0.238,-0.29 -0.315,-0.469c-0.076,-0.179 -0.114,-0.369 -0.114,-0.571l0,-2.256c0,-0.202 0.038,-0.392 0.114,-0.571c0.077,-0.179 0.182,-0.336 0.315,-0.469c0.134,-0.133 0.29,-0.238 0.469,-0.315c0.179,-0.076 0.37,-0.115 0.571,-0.115l0.401,0c0.202,0 0.392,0.039 0.571,0.115c0.179,0.077 0.335,0.182 0.469,0.315c0.133,0.133 0.238,0.29 0.315,0.469c0.076,0.179 0.114,0.369 0.114,0.571l0,2.256Zm-0.6,-2.29c0,-0.121 -0.023,-0.234 -0.068,-0.339c-0.046,-0.106 -0.108,-0.198 -0.186,-0.276c-0.078,-0.078 -0.17,-0.14 -0.276,-0.186c-0.106,-0.045 -0.219,-0.068 -0.339,-0.068l-0.401,0c-0.12,0 -0.233,0.023 -0.339,0.068c-0.106,0.046 -0.198,0.108 -0.276,0.186c-0.078,0.078 -0.14,0.17 -0.185,0.276c-0.046,0.105 -0.069,0.218 -0.069,0.339l0,2.324c0,0.121 0.023,0.234 0.069,0.339c0.045,0.106 0.107,0.198 0.185,0.276c0.078,0.078 0.17,0.14 0.276,0.186c0.106,0.045 0.219,0.068 0.339,0.068l0.401,0c0.12,0 0.233,-0.023 0.339,-0.068c0.106,-0.046 0.198,-0.108 0.276,-0.186c0.078,-0.078 0.14,-0.17 0.186,-0.276c0.045,-0.105 0.068,-0.218 0.068,-0.339l0,-2.324Z" style="fill-rule:nonzero;"/><path d="M85.335,130c-0.182,0 -0.354,-0.034 -0.515,-0.103c-0.161,-0.068 -0.301,-0.162 -0.42,-0.283c-0.119,-0.12 -0.213,-0.26 -0.283,-0.42c-0.07,-0.159 -0.105,-0.33 -0.105,-0.512l0,-3.111l-0.899,0l0,-0.571l0.899,0l0,-1.201l0.6,-0.098l0,1.299l1.27,0l0,0.571l-1.27,0l0,3.14c0,0.101 0.019,0.194 0.056,0.281c0.038,0.086 0.089,0.162 0.154,0.227c0.065,0.065 0.142,0.116 0.23,0.154c0.088,0.037 0.182,0.056 0.283,0.056l0.547,0l0,0.571l-0.547,0Z" style="fill-rule:nonzero;"/><path d="M87.137,123.799l0,-0.801l0.698,0l0,0.801l-0.698,0Zm0.049,6.201l0,-5l0.6,0l0,5l-0.6,0Z" style="fill-rule:nonzero;"/><path d="M90.906,123.569c-0.101,0 -0.194,0.019 -0.281,0.056c-0.086,0.038 -0.161,0.089 -0.227,0.154c-0.065,0.065 -0.116,0.142 -0.153,0.23c-0.038,0.088 -0.057,0.182 -0.057,0.283l0,0.708l1.167,0l0,0.571l-1.167,0l0,4.429l-0.6,0l0,-4.429l-0.903,0l0,-0.571l0.903,0l0,-0.679c0,-0.182 0.034,-0.354 0.102,-0.515c0.069,-0.161 0.163,-0.302 0.284,-0.422c0.12,-0.121 0.26,-0.215 0.42,-0.283c0.159,-0.069 0.33,-0.103 0.512,-0.103l0.552,0l0,0.571l-0.552,0Z" style="fill-rule:nonzero;"/><path d="M92.21,123.799l0,-0.801l0.698,0l0,0.801l-0.698,0Zm0.049,6.201l0,-5l0.6,0l0,5l-0.6,0Z" style="fill-rule:nonzero;"/><path d="M97.601,128.628c0,0.202 -0.039,0.392 -0.115,0.571c-0.077,0.179 -0.182,0.336 -0.315,0.469c-0.134,0.133 -0.29,0.238 -0.469,0.315c-0.179,0.076 -0.369,0.115 -0.571,0.115l-0.401,0c-0.201,0 -0.392,-0.039 -0.571,-0.115c-0.179,-0.077 -0.335,-0.182 -0.469,-0.315c-0.133,-0.133 -0.238,-0.29 -0.315,-0.469c-0.076,-0.179 -0.114,-0.369 -0.114,-0.571l0,-2.256c0,-0.202 0.038,-0.392 0.114,-0.571c0.077,-0.179 0.182,-0.336 0.315,-0.469c0.134,-0.133 0.29,-0.238 0.469,-0.315c0.179,-0.076 0.37,-0.115 0.571,-0.115l0.401,0c0.202,0 0.392,0.039 0.571,0.115c0.179,0.077 0.335,0.182 0.469,0.315c0.133,0.133 0.238,0.29 0.315,0.469c0.076,0.179 0.115,0.369 0.115,0.571l0,1.177l-2.74,0l0,1.113c0,0.121 0.023,0.234 0.069,0.339c0.045,0.106 0.107,0.198 0.185,0.276c0.078,0.078 0.17,0.14 0.276,0.186c0.106,0.045 0.219,0.068 0.339,0.068l0.401,0c0.12,0 0.233,-0.023 0.339,-0.068c0.106,-0.046 0.198,-0.108 0.276,-0.186c0.078,-0.078 0.14,-0.17 0.186,-0.276c0.045,-0.105 0.068,-0.218 0.068,-0.339l0,-0.332l0.601,0.098l0,0.2Zm-0.601,-2.29c0,-0.121 -0.023,-0.234 -0.068,-0.339c-0.046,-0.106 -0.108,-0.198 -0.186,-0.276c-0.078,-0.078 -0.17,-0.14 -0.276,-0.186c-0.106,-0.045 -0.219,-0.068 -0.339,-0.068l-0.401,0c-0.12,0 -0.233,0.023 -0.339,0.068c-0.106,0.046 -0.198,0.108 -0.276,0.186c-0.078,0.078 -0.14,0.17 -0.185,0.276c-0.046,0.105 -0.069,0.218 -0.069,0.339l0,0.742l2.139,0l0,-0.742Z" style="fill-rule:nonzero;"/><path d="M100.271,125.571c-0.12,0 -0.233,0.023 -0.339,0.069c-0.106,0.045 -0.198,0.107 -0.276,0.185c-0.078,0.078 -0.14,0.17 -0.185,0.276c-0.046,0.106 -0.069,0.219 -0.069,0.339l0,3.56l-0.6,0l0,-5l0.2,0l0.327,0.508c0.137,-0.186 0.309,-0.333 0.515,-0.442c0.207,-0.109 0.432,-0.164 0.677,-0.164l0.351,0l0,0.669l-0.601,0Z" style="fill-rule:nonzero;"/><path d="M86.5,360.5l0,11.88" style="fill:none;stroke:#000;stroke-width:1px;"/><path d="M86.5,379.38l-2.33,-7l4.66,0l-2.33,7Z" style="fill-rule:nonzero;stroke:#000;stroke-width:1px;"/><path d="M146.5,332.5c0,-1.104 -0.896,-2 -2,-2l-116,0c-1.104,0 -2,0.896 -2,2l0,26c0,1.104 0.896,2 2,2l116,0c1.104,0 2,-0.896 2,-2l0,-26Z" style="fill:#fff;stroke:#000;stroke-width:1px;stroke-miterlimit:4;"/><path d="M80.331,348.379c0,0.238 -0.048,0.461 -0.144,0.669c-0.096,0.208 -0.225,0.39 -0.386,0.547c-0.161,0.156 -0.348,0.279 -0.561,0.368c-0.213,0.09 -0.439,0.135 -0.677,0.135l-0.502,0c-0.238,0 -0.464,-0.045 -0.677,-0.135c-0.213,-0.089 -0.4,-0.212 -0.561,-0.368c-0.161,-0.157 -0.29,-0.339 -0.386,-0.547c-0.096,-0.208 -0.144,-0.431 -0.144,-0.669l0,-0.278l0.63,-0.103l0,0.381c0,0.156 0.032,0.302 0.095,0.437c0.064,0.135 0.149,0.254 0.256,0.356c0.108,0.103 0.232,0.183 0.374,0.242c0.142,0.059 0.29,0.088 0.447,0.088l0.439,0c0.156,0 0.305,-0.029 0.445,-0.088c0.139,-0.059 0.263,-0.139 0.371,-0.242c0.107,-0.102 0.192,-0.221 0.256,-0.356c0.063,-0.135 0.095,-0.281 0.095,-0.437l0,-0.21c0,-0.241 -0.047,-0.441 -0.141,-0.601c-0.095,-0.159 -0.22,-0.295 -0.376,-0.407c-0.157,-0.113 -0.333,-0.208 -0.53,-0.286c-0.197,-0.078 -0.4,-0.156 -0.608,-0.234c-0.208,-0.079 -0.411,-0.165 -0.608,-0.259c-0.197,-0.095 -0.374,-0.213 -0.53,-0.354c-0.156,-0.142 -0.281,-0.315 -0.376,-0.52c-0.094,-0.205 -0.141,-0.458 -0.141,-0.757l0,-0.132c0,-0.237 0.044,-0.46 0.134,-0.669c0.089,-0.208 0.212,-0.39 0.369,-0.547c0.156,-0.156 0.339,-0.279 0.549,-0.368c0.21,-0.09 0.434,-0.135 0.671,-0.135l0.449,0c0.238,0 0.461,0.045 0.669,0.135c0.209,0.089 0.391,0.212 0.547,0.368c0.157,0.157 0.279,0.339 0.369,0.547c0.089,0.209 0.134,0.432 0.134,0.669l0,0.181l-0.63,0.102l0,-0.283c0,-0.156 -0.029,-0.302 -0.088,-0.437c-0.058,-0.135 -0.138,-0.253 -0.239,-0.354c-0.101,-0.101 -0.219,-0.181 -0.354,-0.239c-0.135,-0.059 -0.281,-0.088 -0.437,-0.088l-0.39,0c-0.157,0 -0.302,0.029 -0.437,0.088c-0.136,0.058 -0.254,0.138 -0.357,0.239c-0.102,0.101 -0.183,0.219 -0.242,0.354c-0.058,0.135 -0.087,0.281 -0.087,0.437l0,0.132c0,0.225 0.047,0.413 0.141,0.566c0.095,0.153 0.22,0.284 0.376,0.393c0.156,0.109 0.333,0.204 0.53,0.284c0.197,0.079 0.399,0.161 0.608,0.244c0.208,0.083 0.411,0.174 0.608,0.273c0.197,0.1 0.373,0.222 0.529,0.366c0.157,0.145 0.282,0.322 0.376,0.53c0.095,0.209 0.142,0.462 0.142,0.762l0,0.21Z" style="fill-rule:nonzero;"/><path d="M83.305,350c-0.183,0 -0.354,-0.034 -0.515,-0.103c-0.162,-0.068 -0.302,-0.162 -0.42,-0.283c-0.119,-0.12 -0.214,-0.26 -0.284,-0.42c-0.07,-0.159 -0.105,-0.33 -0.105,-0.512l0,-3.111l-0.898,0l0,-0.571l0.898,0l0,-1.201l0.601,-0.098l0,1.299l1.27,0l0,0.571l-1.27,0l0,3.14c0,0.101 0.019,0.194 0.056,0.281c0.038,0.086 0.089,0.162 0.154,0.227c0.065,0.065 0.142,0.116 0.229,0.154c0.088,0.037 0.183,0.056 0.284,0.056l0.547,0l0,0.571l-0.547,0Z" style="fill-rule:nonzero;"/><path d="M88.295,348.628c0,0.202 -0.038,0.392 -0.115,0.571c-0.076,0.179 -0.181,0.336 -0.315,0.469c-0.133,0.133 -0.289,0.238 -0.469,0.315c-0.179,0.076 -0.369,0.115 -0.571,0.115l-0.4,0c-0.202,0 -0.392,-0.039 -0.571,-0.115c-0.18,-0.077 -0.336,-0.182 -0.469,-0.315c-0.134,-0.133 -0.239,-0.29 -0.315,-0.469c-0.077,-0.179 -0.115,-0.369 -0.115,-0.571l0,-2.256c0,-0.202 0.038,-0.392 0.115,-0.571c0.076,-0.179 0.181,-0.336 0.315,-0.469c0.133,-0.133 0.289,-0.238 0.469,-0.315c0.179,-0.076 0.369,-0.115 0.571,-0.115l0.4,0c0.202,0 0.392,0.039 0.571,0.115c0.18,0.077 0.336,0.182 0.469,0.315c0.134,0.133 0.239,0.29 0.315,0.469c0.077,0.179 0.115,0.369 0.115,0.571l0,2.256Zm-0.601,-2.29c0,-0.121 -0.022,-0.234 -0.068,-0.339c-0.046,-0.106 -0.107,-0.198 -0.186,-0.276c-0.078,-0.078 -0.17,-0.14 -0.275,-0.186c-0.106,-0.045 -0.219,-0.068 -0.34,-0.068l-0.4,0c-0.121,0 -0.234,0.023 -0.34,0.068c-0.105,0.046 -0.197,0.108 -0.275,0.186c-0.079,0.078 -0.14,0.17 -0.186,0.276c-0.046,0.105 -0.068,0.218 -0.068,0.339l0,2.324c0,0.121 0.022,0.234 0.068,0.339c0.046,0.106 0.107,0.198 0.186,0.276c0.078,0.078 0.17,0.14 0.275,0.186c0.106,0.045 0.219,0.068 0.34,0.068l0.4,0c0.121,0 0.234,-0.023 0.34,-0.068c0.105,-0.046 0.197,-0.108 0.275,-0.186c0.079,-0.078 0.14,-0.17 0.186,-0.276c0.046,-0.105 0.068,-0.218 0.068,-0.339l0,-2.324Z" style="fill-rule:nonzero;"/><path d="M90.966,345.571c-0.121,0 -0.234,0.023 -0.34,0.069c-0.105,0.045 -0.197,0.107 -0.275,0.185c-0.079,0.078 -0.14,0.17 -0.186,0.276c-0.046,0.106 -0.068,0.219 -0.068,0.339l0,3.56l-0.601,0l0,-5l0.2,0l0.327,0.508c0.137,-0.186 0.309,-0.333 0.516,-0.442c0.206,-0.109 0.432,-0.164 0.676,-0.164l0.351,0l0,0.669l-0.6,0Z" style="fill-rule:nonzero;"/><path d="M95.707,348.628c0,0.202 -0.038,0.392 -0.115,0.571c-0.076,0.179 -0.181,0.336 -0.315,0.469c-0.133,0.133 -0.289,0.238 -0.468,0.315c-0.179,0.076 -0.37,0.115 -0.572,0.115l-0.4,0c-0.202,0 -0.392,-0.039 -0.571,-0.115c-0.179,-0.077 -0.336,-0.182 -0.469,-0.315c-0.134,-0.133 -0.239,-0.29 -0.315,-0.469c-0.077,-0.179 -0.115,-0.369 -0.115,-0.571l0,-2.256c0,-0.202 0.038,-0.392 0.115,-0.571c0.076,-0.179 0.181,-0.336 0.315,-0.469c0.133,-0.133 0.29,-0.238 0.469,-0.315c0.179,-0.076 0.369,-0.115 0.571,-0.115l0.4,0c0.202,0 0.393,0.039 0.572,0.115c0.179,0.077 0.335,0.182 0.468,0.315c0.134,0.133 0.239,0.29 0.315,0.469c0.077,0.179 0.115,0.369 0.115,0.571l0,1.177l-2.739,0l0,1.113c0,0.121 0.023,0.234 0.068,0.339c0.046,0.106 0.108,0.198 0.186,0.276c0.078,0.078 0.17,0.14 0.276,0.186c0.105,0.045 0.218,0.068 0.339,0.068l0.4,0c0.121,0 0.234,-0.023 0.34,-0.068c0.105,-0.046 0.197,-0.108 0.276,-0.186c0.078,-0.078 0.14,-0.17 0.185,-0.276c0.046,-0.105 0.068,-0.218 0.068,-0.339l0,-0.332l0.601,0.098l0,0.2Zm-0.601,-2.29c0,-0.121 -0.022,-0.234 -0.068,-0.339c-0.045,-0.106 -0.107,-0.198 -0.185,-0.276c-0.079,-0.078 -0.171,-0.14 -0.276,-0.186c-0.106,-0.045 -0.219,-0.068 -0.34,-0.068l-0.4,0c-0.121,0 -0.234,0.023 -0.339,0.068c-0.106,0.046 -0.198,0.108 -0.276,0.186c-0.078,0.078 -0.14,0.17 -0.186,0.276c-0.045,0.105 -0.068,0.218 -0.068,0.339l0,0.742l2.138,0l0,-0.742Z" style="fill-rule:nonzero;"/><path d="M86.5,80.5l0,11.88" style="fill:none;stroke:#000;stroke-width:1px;"/><path d="M86.5,99.38l-2.33,-7l4.66,0l-2.33,7Z" style="fill-rule:nonzero;stroke:#000;stroke-width:1px;"/><path d="M146.5,52.5c0,-1.104 -0.896,-2 -2,-2l-116,0c-1.104,0 -2,0.896 -2,2l0,26c0,1.104 0.896,2 2,2l116,0c1.104,0 2,-0.896 2,-2l0,-26Z" style="fill:#fff;stroke:#000;stroke-width:1px;stroke-miterlimit:4;"/><path d="M79.323,68.281c0,0.238 -0.045,0.461 -0.135,0.669c-0.089,0.209 -0.212,0.391 -0.368,0.547c-0.156,0.156 -0.34,0.279 -0.549,0.369c-0.21,0.089 -0.434,0.134 -0.672,0.134l-2.217,0l0,-7.002l2.217,0c0.238,0 0.462,0.045 0.672,0.134c0.209,0.09 0.393,0.213 0.549,0.369c0.156,0.156 0.279,0.339 0.368,0.549c0.09,0.21 0.135,0.434 0.135,0.672l0,0.068c0,0.166 -0.022,0.325 -0.066,0.476c-0.044,0.151 -0.107,0.292 -0.188,0.422c-0.082,0.131 -0.178,0.249 -0.288,0.354c-0.111,0.106 -0.235,0.195 -0.371,0.267c0.136,0.071 0.26,0.16 0.371,0.266c0.11,0.106 0.206,0.224 0.288,0.356c0.081,0.132 0.144,0.274 0.188,0.425c0.044,0.151 0.066,0.31 0.066,0.476l0,0.449Zm-0.63,-0.552c0,-0.156 -0.029,-0.301 -0.088,-0.437c-0.059,-0.135 -0.139,-0.253 -0.242,-0.354c-0.102,-0.1 -0.221,-0.18 -0.356,-0.239c-0.135,-0.058 -0.281,-0.088 -0.437,-0.088l-1.558,0l0,2.788l1.558,0c0.156,0 0.302,-0.029 0.437,-0.087c0.135,-0.059 0.254,-0.139 0.356,-0.24c0.103,-0.101 0.183,-0.219 0.242,-0.354c0.059,-0.135 0.088,-0.28 0.088,-0.437l0,-0.552Zm0,-3.007c0,-0.157 -0.029,-0.302 -0.088,-0.437c-0.059,-0.135 -0.139,-0.254 -0.242,-0.357c-0.102,-0.102 -0.221,-0.183 -0.356,-0.241c-0.135,-0.059 -0.281,-0.088 -0.437,-0.088l-1.558,0l0,2.412l1.558,0c0.156,0 0.302,-0.03 0.437,-0.088c0.135,-0.059 0.254,-0.139 0.356,-0.242c0.103,-0.102 0.183,-0.221 0.242,-0.356c0.059,-0.135 0.088,-0.281 0.088,-0.437l0,-0.166Z" style="fill-rule:nonzero;"/><path d="M83.463,70l-0.332,-0.508c-0.136,0.186 -0.307,0.333 -0.512,0.442c-0.205,0.109 -0.43,0.164 -0.674,0.164l-0.152,0c-0.201,0 -0.392,-0.039 -0.571,-0.115c-0.179,-0.077 -0.335,-0.182 -0.469,-0.315c-0.133,-0.133 -0.238,-0.29 -0.315,-0.469c-0.076,-0.179 -0.114,-0.369 -0.114,-0.571l0,-3.628l0.6,0l0,3.662c0,0.121 0.023,0.234 0.069,0.339c0.045,0.106 0.107,0.198 0.185,0.276c0.078,0.078 0.17,0.14 0.276,0.186c0.106,0.045 0.219,0.068 0.339,0.068l0.401,0c0.12,0 0.233,-0.023 0.339,-0.068c0.106,-0.046 0.198,-0.108 0.276,-0.186c0.078,-0.078 0.14,-0.17 0.186,-0.276c0.045,-0.105 0.068,-0.218 0.068,-0.339l0,-3.662l0.601,0l0,5l-0.201,0Z" style="fill-rule:nonzero;"/><path d="M86.583,63.569c-0.1,0 -0.194,0.019 -0.28,0.056c-0.087,0.038 -0.162,0.089 -0.227,0.154c-0.065,0.065 -0.117,0.142 -0.154,0.23c-0.038,0.088 -0.056,0.182 -0.056,0.283l0,0.708l1.167,0l0,0.571l-1.167,0l0,4.429l-0.601,0l0,-4.429l-0.903,0l0,-0.571l0.903,0l0,-0.679c0,-0.182 0.034,-0.354 0.103,-0.515c0.068,-0.161 0.162,-0.302 0.283,-0.422c0.12,-0.121 0.26,-0.215 0.42,-0.283c0.159,-0.069 0.33,-0.103 0.512,-0.103l0.552,0l0,0.571l-0.552,0Z" style="fill-rule:nonzero;"/><path d="M89.455,63.569c-0.101,0 -0.195,0.019 -0.281,0.056c-0.086,0.038 -0.162,0.089 -0.227,0.154c-0.065,0.065 -0.117,0.142 -0.154,0.23c-0.037,0.088 -0.056,0.182 -0.056,0.283l0,0.708l1.167,0l0,0.571l-1.167,0l0,4.429l-0.601,0l0,-4.429l-0.903,0l0,-0.571l0.903,0l0,-0.679c0,-0.182 0.034,-0.354 0.103,-0.515c0.068,-0.161 0.163,-0.302 0.283,-0.422c0.12,-0.121 0.26,-0.215 0.42,-0.283c0.159,-0.069 0.33,-0.103 0.513,-0.103l0.551,0l0,0.571l-0.551,0Z" style="fill-rule:nonzero;"/><path d="M93.947,68.628c0,0.202 -0.038,0.392 -0.115,0.571c-0.076,0.179 -0.181,0.336 -0.315,0.469c-0.133,0.133 -0.29,0.238 -0.469,0.315c-0.179,0.076 -0.369,0.115 -0.571,0.115l-0.4,0c-0.202,0 -0.393,-0.039 -0.572,-0.115c-0.179,-0.077 -0.335,-0.182 -0.468,-0.315c-0.134,-0.133 -0.239,-0.29 -0.315,-0.469c-0.077,-0.179 -0.115,-0.369 -0.115,-0.571l0,-2.256c0,-0.202 0.038,-0.392 0.115,-0.571c0.076,-0.179 0.181,-0.336 0.315,-0.469c0.133,-0.133 0.289,-0.238 0.468,-0.315c0.179,-0.076 0.37,-0.115 0.572,-0.115l0.4,0c0.202,0 0.392,0.039 0.571,0.115c0.179,0.077 0.336,0.182 0.469,0.315c0.134,0.133 0.239,0.29 0.315,0.469c0.077,0.179 0.115,0.369 0.115,0.571l0,1.177l-2.739,0l0,1.113c0,0.121 0.022,0.234 0.068,0.339c0.045,0.106 0.107,0.198 0.185,0.276c0.079,0.078 0.171,0.14 0.276,0.186c0.106,0.045 0.219,0.068 0.34,0.068l0.4,0c0.12,0 0.234,-0.023 0.339,-0.068c0.106,-0.046 0.198,-0.108 0.276,-0.186c0.078,-0.078 0.14,-0.17 0.186,-0.276c0.045,-0.105 0.068,-0.218 0.068,-0.339l0,-0.332l0.601,0.098l0,0.2Zm-0.601,-2.29c0,-0.121 -0.023,-0.234 -0.068,-0.339c-0.046,-0.106 -0.108,-0.198 -0.186,-0.276c-0.078,-0.078 -0.17,-0.14 -0.276,-0.186c-0.105,-0.045 -0.219,-0.068 -0.339,-0.068l-0.4,0c-0.121,0 -0.234,0.023 -0.34,0.068c-0.105,0.046 -0.197,0.108 -0.276,0.186c-0.078,0.078 -0.14,0.17 -0.185,0.276c-0.046,0.105 -0.068,0.218 -0.068,0.339l0,0.742l2.138,0l0,-0.742Z" style="fill-rule:nonzero;"/><path d="M96.618,65.571c-0.121,0 -0.234,0.023 -0.34,0.069c-0.105,0.045 -0.197,0.107 -0.276,0.185c-0.078,0.078 -0.14,0.17 -0.185,0.276c-0.046,0.106 -0.068,0.219 -0.068,0.339l0,3.56l-0.601,0l0,-5l0.2,0l0.327,0.508c0.137,-0.186 0.309,-0.333 0.515,-0.442c0.207,-0.109 0.433,-0.164 0.677,-0.164l0.351,0l0,0.669l-0.6,0Z" style="fill-rule:nonzero;"/><path d="M86.5,30.5l0,11.88" style="fill:none;stroke:#000;stroke-width:1px;"/><path d="M86.5,49.38l-2.33,-7l4.66,0l-2.33,7Z" style="fill-rule:nonzero;stroke:#000;stroke-width:1px;"/><path d="M146.5,2.5c0,-1.104 -0.896,-2 -2,-2l-116,0c-1.104,0 -2,0.896 -2,2l0,26c0,1.104 0.896,2 2,2l116,0c1.104,0 2,-0.896 2,-2l0,-26Z" style="fill:#fff;stroke:#000;stroke-width:1px;stroke-miterlimit:4;"/><path d="M78.148,13.599l0,2.602l2.681,0l0,0.601l-2.681,0l0,3.198l-0.629,0l0,-7.002l3.94,0l0,0.601l-3.311,0Z" style="fill-rule:nonzero;"/><path d="M85.6,18.628c0,0.202 -0.039,0.392 -0.115,0.571c-0.077,0.179 -0.182,0.336 -0.315,0.469c-0.134,0.133 -0.29,0.238 -0.469,0.315c-0.179,0.076 -0.369,0.115 -0.571,0.115l-0.401,0c-0.201,0 -0.392,-0.039 -0.571,-0.115c-0.179,-0.077 -0.335,-0.182 -0.469,-0.315c-0.133,-0.133 -0.238,-0.29 -0.314,-0.469c-0.077,-0.179 -0.115,-0.369 -0.115,-0.571l0,-2.256c0,-0.202 0.038,-0.392 0.115,-0.571c0.076,-0.179 0.181,-0.336 0.314,-0.469c0.134,-0.133 0.29,-0.238 0.469,-0.315c0.179,-0.076 0.37,-0.115 0.571,-0.115l0.401,0c0.202,0 0.392,0.039 0.571,0.115c0.179,0.077 0.335,0.182 0.469,0.315c0.133,0.133 0.238,0.29 0.315,0.469c0.076,0.179 0.115,0.369 0.115,0.571l0,1.177l-2.74,0l0,1.113c0,0.121 0.023,0.234 0.069,0.339c0.045,0.106 0.107,0.198 0.185,0.276c0.078,0.078 0.17,0.14 0.276,0.186c0.106,0.045 0.219,0.068 0.339,0.068l0.401,0c0.12,0 0.233,-0.023 0.339,-0.068c0.106,-0.046 0.198,-0.108 0.276,-0.186c0.078,-0.078 0.14,-0.17 0.186,-0.276c0.045,-0.105 0.068,-0.218 0.068,-0.339l0,-0.332l0.601,0.098l0,0.2Zm-0.601,-2.29c0,-0.121 -0.023,-0.234 -0.068,-0.339c-0.046,-0.106 -0.108,-0.198 -0.186,-0.276c-0.078,-0.078 -0.17,-0.14 -0.276,-0.186c-0.106,-0.045 -0.219,-0.068 -0.339,-0.068l-0.401,0c-0.12,0 -0.233,0.023 -0.339,0.068c-0.106,0.046 -0.198,0.108 -0.276,0.186c-0.078,0.078 -0.14,0.17 -0.185,0.276c-0.046,0.105 -0.069,0.218 -0.069,0.339l0,0.742l2.139,0l0,-0.742Z" style="fill-rule:nonzero;"/><path d="M90.141,18.628c0,0.202 -0.039,0.392 -0.115,0.571c-0.077,0.179 -0.182,0.336 -0.315,0.469c-0.134,0.133 -0.29,0.238 -0.469,0.315c-0.179,0.076 -0.369,0.115 -0.571,0.115l-0.4,0c-0.202,0 -0.393,-0.039 -0.572,-0.115c-0.179,-0.077 -0.335,-0.182 -0.469,-0.315c-0.133,-0.133 -0.238,-0.29 -0.314,-0.469c-0.077,-0.179 -0.115,-0.369 -0.115,-0.571l0,-2.256c0,-0.202 0.038,-0.392 0.115,-0.571c0.076,-0.179 0.181,-0.336 0.314,-0.469c0.134,-0.133 0.29,-0.238 0.469,-0.315c0.179,-0.076 0.37,-0.115 0.572,-0.115l0.4,0c0.202,0 0.392,0.039 0.571,0.115c0.179,0.077 0.335,0.182 0.469,0.315c0.133,0.133 0.238,0.29 0.315,0.469c0.076,0.179 0.115,0.369 0.115,0.571l0,1.177l-2.74,0l0,1.113c0,0.121 0.023,0.234 0.069,0.339c0.045,0.106 0.107,0.198 0.185,0.276c0.078,0.078 0.17,0.14 0.276,0.186c0.106,0.045 0.219,0.068 0.34,0.068l0.4,0c0.12,0 0.233,-0.023 0.339,-0.068c0.106,-0.046 0.198,-0.108 0.276,-0.186c0.078,-0.078 0.14,-0.17 0.186,-0.276c0.045,-0.105 0.068,-0.218 0.068,-0.339l0,-0.332l0.601,0.098l0,0.2Zm-0.601,-2.29c0,-0.121 -0.023,-0.234 -0.068,-0.339c-0.046,-0.106 -0.108,-0.198 -0.186,-0.276c-0.078,-0.078 -0.17,-0.14 -0.276,-0.186c-0.106,-0.045 -0.219,-0.068 -0.339,-0.068l-0.4,0c-0.121,0 -0.234,0.023 -0.34,0.068c-0.106,0.046 -0.198,0.108 -0.276,0.186c-0.078,0.078 -0.14,0.17 -0.185,0.276c-0.046,0.105 -0.069,0.218 -0.069,0.339l0,0.742l2.139,0l0,-0.742Z" style="fill-rule:nonzero;"/><path d="M94.481,20l-0.332,-0.508c-0.136,0.186 -0.307,0.333 -0.512,0.442c-0.205,0.109 -0.43,0.164 -0.674,0.164l-0.151,0c-0.202,0 -0.393,-0.039 -0.572,-0.115c-0.179,-0.077 -0.335,-0.182 -0.469,-0.315c-0.133,-0.133 -0.238,-0.29 -0.314,-0.469c-0.077,-0.179 -0.115,-0.369 -0.115,-0.571l0,-2.256c0,-0.202 0.038,-0.392 0.115,-0.571c0.076,-0.179 0.181,-0.336 0.314,-0.469c0.134,-0.133 0.29,-0.238 0.469,-0.315c0.179,-0.076 0.37,-0.115 0.572,-0.115l0.151,0c0.224,0 0.433,0.046 0.625,0.137c0.192,0.091 0.356,0.218 0.493,0.381l0,-2.422l0.601,0l0,7.002l-0.201,0Zm-0.4,-3.662c0,-0.121 -0.023,-0.234 -0.068,-0.339c-0.046,-0.106 -0.108,-0.198 -0.186,-0.276c-0.078,-0.078 -0.17,-0.14 -0.276,-0.186c-0.106,-0.045 -0.219,-0.068 -0.339,-0.068l-0.4,0c-0.121,0 -0.234,0.023 -0.34,0.068c-0.106,0.046 -0.198,0.108 -0.276,0.186c-0.078,0.078 -0.14,0.17 -0.185,0.276c-0.046,0.105 -0.069,0.218 -0.069,0.339l0,2.324c0,0.121 0.023,0.234 0.069,0.339c0.045,0.106 0.107,0.198 0.185,0.276c0.078,0.078 0.17,0.14 0.276,0.186c0.106,0.045 0.219,0.068 0.34,0.068l0.4,0c0.12,0 0.233,-0.023 0.339,-0.068c0.106,-0.046 0.198,-0.108 0.276,-0.186c0.078,-0.078 0.14,-0.17 0.186,-0.276c0.045,-0.105 0.068,-0.218 0.068,-0.339l0,-2.324Z" style="fill-rule:nonzero;"/><path d="M86.5,310.5l0,11.88" style="fill:none;stroke:#000;stroke-width:1px;"/><path d="M86.5,329.38l-2.33,-7l4.66,0l-2.33,7Z" style="fill-rule:nonzero;stroke:#000;stroke-width:1px;"/></g></svg>